<?xml version="1.0" encoding="utf-8"?>
<!-- Generator: Adobe Illustrator 16.0.4, SVG Export Plug-In . SVG Version: 6.00 Build 0)  -->
<!DOCTYPE svg PUBLIC "-//W3C//DTD SVG 1.1//EN" "http://www.w3.org/Graphics/SVG/1.1/DTD/svg11.dtd">
<svg version="1.1" id="Layer_1" xmlns="http://www.w3.org/2000/svg" xmlns:xlink="http://www.w3.org/1999/xlink" x="0px" y="0px"
	 width="844.458px" height="74.173px" viewBox="0 0 844.458 74.173" enable-background="new 0 0 844.458 74.173"
	 xml:space="preserve">
<rect id="logo-name-mask" width="844.888" height="74.407"/>
<g id="logo-name_1_">
	<path fill="#FFFFFF" d="M303.529,27.656c-3.787-3.358-8.36-5.002-13.648-5.002c-5.217,0-9.79,1.644-13.577,5.002
		c-3.788,3.287-5.717,7.861-5.717,13.72c0,5.86,1.929,10.433,5.717,13.792c3.787,3.287,8.36,4.93,13.577,4.93
		c5.288,0,9.861-1.643,13.648-4.93c3.859-3.359,5.789-7.933,5.789-13.792C309.318,35.518,307.388,30.943,303.529,27.656z
		 M297.098,48.88c-2.001,1.857-4.43,2.787-7.217,2.787c-2.787,0-5.145-0.93-7.146-2.787c-2.001-1.93-3.001-4.431-3.001-7.503
		s1-5.574,3.001-7.432c2.001-1.929,4.359-2.858,7.146-2.858c2.787,0,5.216,0.929,7.217,2.858c2.072,1.858,3.073,4.359,3.073,7.432
		S299.17,46.95,297.098,48.88z"/>
	<path fill="#FFFFFF" d="M322.888,29.301v-5.894h-9v36h9V41.592c0-6.217,2.97-10.505,8.328-10.505c1.072,0,1.878,0.143,2.807,0.5
		l1.367-8.503c-0.857-0.286-1.642-0.429-2.856-0.429C328.174,22.654,324.888,24.87,322.888,29.301z"/>
	<path fill="#FFFFFF" d="M354.335,37.375c-5.573-1.071-8.36-2.786-8.36-5.002c0-2.072,1.786-3.144,5.359-3.144
		c3.644,0,6.36,2.072,8.003,6.217l6.503-3.859c-2.93-6.074-7.146-8.932-14.649-8.932c-3.644,0-6.788,0.929-9.361,2.787
		c-2.573,1.786-3.859,4.287-3.859,7.503c0,6.003,4.931,9.647,12.363,11.076c5.43,1.072,7.574,2.215,7.574,4.574
		c0,2.357-2.644,3.93-5.574,3.93c-4.359,0-7.503-3.002-9.146-7.646l-7.218,4.573c2.644,6.288,8.004,10.647,16.222,10.647
		c4.216,0,7.646-1.143,10.147-3.358c2.572-2.215,3.858-5.073,3.858-8.432C366.197,42.306,362.624,39.162,354.335,37.375z"/>
	<path fill="#FFFFFF" d="M122.173,22.654c-5.072,0-9.285,2.215-12.285,6.717v-5.964h-9v36h9V41.091c0-5.788,3.213-10.004,8-10.004
		c4.788,0,7,2.501,7,7.575v20.746h10V34.945C134.888,27.585,129.819,22.654,122.173,22.654z"/>
	<path fill="#FFFFFF" d="M94.888,35.518c0-8.576-5.546-12.863-15.621-12.863c-4.502,0-8.132,1.072-10.919,3.216
		c-2.716,2.143-4.102,4.716-4.102,7.646c0,1.072,0.199,2.072,0.628,3.001l8.068-2.715c-0.072-0.215-0.147-0.501-0.147-0.858
		c0-2.358,2.474-4.002,6.476-4.002c4.359,0,6.617,1.787,6.617,5.36v1.356l-10.764,1.645c-7.36,1.143-12.706,4.931-12.706,11.719
		c0,6.646,4.83,11.076,11.903,11.076c5.36,0,9.348-2.061,11.849-6.49c0,2.357,0.556,3.799,1.7,5.799h9.146
		c-1.572-3-2.128-5.525-2.128-9.098V35.518z M85.888,42.521c0,6.574-3.832,10.29-9.335,10.29c-3.215,0-5.346-1.501-5.346-4.288
		s2.088-4.573,6.018-5.216l8.663-1.431V42.521z"/>
	<path fill="#FFFFFF" d="M387.334,52.096c-3.001,0-4.446-1.645-4.446-5.002V31.407h8v-8h-8v-9h-9v9h-6v8h6v17.401
		c0,7.503,3.729,11.29,11.304,11.29c2.144,0,4.116-0.357,5.974-1l-0.845-7.432C389.393,51.952,388.406,52.096,387.334,52.096z"/>
	<polygon fill="#FFFFFF" points="233.888,59.407 242.888,59.407 242.888,38.407 266.888,38.407 266.888,30.407 242.888,30.407
		242.888,17.407 268.888,17.407 268.888,9.407 233.888,9.407 	"/>
	<path fill="#FFFFFF" d="M52.355,15.674c-5.002-4.287-11.577-6.267-19.723-6.267H17.888v50h14.745
		c8.146,0,14.721-2.299,19.723-6.515c5.002-4.287,7.503-10.499,7.503-18.646C59.858,26.101,57.357,19.89,52.355,15.674z
		 M33.275,50.407h-6.388v-33h6.388c10.362,0,17.007,5.924,17.007,16.571C50.282,44.555,43.637,50.407,33.275,50.407z"/>
	<path fill="#FFFFFF" d="M161.173,22.654c-5.073,0-9.285,2.215-12.285,6.717v-5.964h-9v36h9V41.091c0-5.788,3.713-10.004,8.5-10.004
		s7.5,2.501,7.5,7.575v20.746h9V34.945C173.888,27.585,168.819,22.654,161.173,22.654z"/>
	<path fill="#FFFFFF" d="M194.271,46.418l-9.147-23.011h-10.219l14.578,35.854l-1.143,3.206c-0.786,2.215-2.073,3.39-4.002,3.39
		c-1.143,0-2.215-0.271-3.216-0.843l-1.429,8.369c1.358,0.5,3.001,0.79,4.931,0.79c5.502,0,9.146-2.694,11.719-8.769l16.864-41.997
		h-10.218L194.271,46.418z"/>
	<path fill="#FFFFFF" d="M442.888,29.301v-5.894h-9v36h9V41.592c0-6.217,3.207-10.505,8.566-10.505c1.072,0,1.997,0.143,2.926,0.5
		l1.428-8.503c-0.857-0.286-1.851-0.429-3.065-0.429C448.383,22.654,444.888,24.87,442.888,29.301z"/>
	<path fill="#FFFFFF" d="M411.859,22.654c-5.217,0-9.647,1.786-13.292,5.288c-3.573,3.501-5.359,7.932-5.359,13.434
		c0,5.503,1.786,10.004,5.288,13.506c3.573,3.501,7.86,5.216,12.934,5.216c7.789,0,13.291-3.43,16.65-10.361l-6.717-3.859
		c-2.215,4.359-5.431,6.447-9.79,6.447c-5.36,0-9.147-2.918-9.719-8.918h27.034v-3.031c0-5.145-1.512-9.361-4.727-12.72
		C420.945,24.298,416.932,22.654,411.859,22.654z M401.854,37.407c1.358-5,5.074-7.432,9.719-7.432c5.073,0,8.432,2.432,9.289,7.432
		H401.854z"/>
</g>
<g id="logo-name">
	<path fill="#FFFFFF" d="M698.36,52.096c-3,0-4.473-1.645-4.473-5.002V31.407h8v-8h-8v-9h-9v9h-6v8h6v17.401
		c0,7.503,3.758,11.29,11.332,11.29c2.143,0,4.129-0.357,5.987-1l-0.852-7.432C700.427,51.952,699.433,52.096,698.36,52.096z"/>
	<path fill="#FFFFFF" d="M723.271,22.654c-5.217,0-9.647,1.786-13.291,5.288c-3.573,3.501-5.36,7.932-5.36,13.434
		c0,5.503,1.787,10.004,5.288,13.506c3.573,3.501,7.861,5.216,12.934,5.216c7.789,0,13.292-3.43,16.65-10.361l-6.717-3.859
		c-2.215,4.359-5.432,6.447-9.79,6.447c-5.359,0-9.146-2.918-9.718-8.918h27.621v-3.031c0-5.145-1.806-9.361-5.021-12.72
		C732.65,24.298,728.344,22.654,723.271,22.654z M713.267,37.407c1.357-5,5.073-7.432,9.718-7.432c5.074,0,8.432,2.432,9.29,7.432
		H713.267z"/>
	<path fill="#FFFFFF" d="M762,51.667c-5.502,0-9.432-4.073-9.432-10.291c0-6.074,4.001-10.29,9.432-10.29
		c4.073,0,7.075,2.001,8.934,6.074l7.359-4.858c-2.501-6.074-8.432-9.647-16.221-9.647c-5.217,0-9.576,1.715-13.22,5.216
		c-3.646,3.502-5.432,8.004-5.432,13.506c0,5.574,1.786,10.076,5.288,13.578c3.573,3.43,8.003,5.145,13.363,5.145
		c7.646,0,13.219-3.43,16.578-10.218l-7.289-4.716C769.146,49.522,766.574,51.667,762,51.667z"/>
	<rect x="665.888" y="9.407" fill="#FFFFFF" width="10" height="9"/>
	<path fill="#FFFFFF" d="M799.417,52.096c-3.002,0-4.529-1.645-4.529-5.002V31.407h8v-8h-8v-9h-9v9h-5v8h5v17.401
		c0,7.503,3.812,11.29,11.387,11.29c2.145,0,4.158-0.357,6.017-1l-0.865-7.432C801.497,51.952,800.489,52.096,799.417,52.096z"/>
	<path fill="#FFFFFF" d="M824.025,37.375c-5.573-1.071-8.36-2.786-8.36-5.002c0-2.072,1.786-3.144,5.359-3.144
		c3.644,0,6.359,2.072,8.003,6.217l6.503-3.859c-2.93-6.074-7.146-8.932-14.649-8.932c-3.644,0-6.788,0.929-9.36,2.787
		c-2.573,1.786-3.859,4.287-3.859,7.503c0,6.003,4.931,9.647,12.363,11.076c5.43,1.072,7.574,2.215,7.574,4.574
		c0,2.357-2.645,3.93-5.574,3.93c-4.359,0-7.503-3.002-9.146-7.646l-7.218,4.573c2.644,6.288,8.004,10.647,16.222,10.647
		c4.217,0,7.646-1.143,10.147-3.358c2.572-2.215,3.858-5.073,3.858-8.432C835.888,42.306,832.314,39.162,824.025,37.375z"/>
	<rect x="665.888" y="23.407" fill="#FFFFFF" width="9" height="36"/>
	<path fill="#FFFFFF" d="M533.122,9.407l-20.223,50h10.075l5.002-13h19.294l5.003,13h10.075l-20.224-50H533.122z M531.192,37.407
		l4.573-11.914l1.857-5.386c0.572,2.001,1.215,3.719,1.858,5.363l4.574,11.937H531.192z"/>
	<path fill="#FFFFFF" d="M605.723,51.667c-5.503,0-9.433-4.073-9.433-10.291c0-6.074,4.001-10.29,9.433-10.29
		c4.072,0,7.073,2.001,8.932,6.074l7.361-4.858c-2.501-6.074-8.433-9.647-16.222-9.647c-5.217,0-9.576,1.715-13.22,5.216
		c-3.646,3.502-5.431,8.004-5.431,13.506c0,5.574,1.785,10.076,5.288,13.578c3.572,3.43,8.003,5.145,13.362,5.145
		c7.646,0,13.219-3.43,16.578-10.218l-7.289-4.716C612.868,49.522,610.295,51.667,605.723,51.667z"/>
	<path fill="#FFFFFF" d="M573.888,29.301v-5.894h-9v36h9V41.592c0-6.217,3.234-10.505,8.594-10.505c1.072,0,2.01,0.143,2.938,0.5
		l1.434-8.503c-0.858-0.286-1.874-0.429-3.089-0.429C579.405,22.654,575.888,24.87,573.888,29.301z"/>
	<path fill="#FFFFFF" d="M647.245,22.654c-5.36,0-9.357,2.215-12.357,6.574V9.407h-9v50h9V41.091c0-5.788,3.712-10.004,8.786-10.004
		c4.573,0,7.214,2.787,7.214,7.575v20.746h9V35.159C659.888,27.514,654.962,22.654,647.245,22.654z"/>
</g>
<g>
	<path class="animate-letter" fill="none" stroke="#FFFFFF" stroke-width="8.2" stroke-miterlimit="10" d="M491.907,15.836
		c-1.395-1.929-6.937-6.637-12.807-2.828c-5.836,3.787-4.068,9.751-1.998,12.733s26.264,36.7,26.264,36.7"/>
	<path class="animate-letter" fill="none" stroke="#FFFFFF" stroke-width="8.4" stroke-miterlimit="10" d="M490.257,25.922c0,0-9.365,6.613-13.037,9.173
		c-4.395,3.062-9.205,9.857-4.52,16.875c4.188,6.271,13.803,5.092,18.221,2.125c4.418-2.969,5.188-3.438,5.188-3.438"/>
	<rect x="493.515" y="59.111" width="15.373" height="6"/>
</g>
<rect class="logo-name-mask" width="458.888" height="74.173"/>
<rect class="logo-name-mask" x="508.888" width="335.57" height="74.173"/>
</svg>
