<?xml version="1.0" encoding="utf-8"?>
<!-- Generator: Adobe Illustrator 21.1.0, SVG Export Plug-In . SVG Version: 6.00 Build 0)  -->
<svg version="1.1" id="Layer_1" xmlns="http://www.w3.org/2000/svg" xmlns:xlink="http://www.w3.org/1999/xlink" x="0px" y="0px"
	 viewBox="0 0 46 60.7" style="enable-background:new 0 0 46 60.7;" xml:space="preserve">
<style type="text/css">
	.st0{fill:#FFFFFF;}
</style>
<path class="st0" d="M24,28.9l6-4.3L24.6,17l-6,4.3l-1.1-1.6c-3.1-4.3-3.4-7.9-0.9-10c2.4-2,6.1-1.8,9,2.2l7.6-5.4
	C29,1.5,24.9,0.3,20.7,0c-3.6-0.2-6.7,0.3-10.6,3.3C6.7,6,5,9.7,5.1,14.2c0.1,3.4,1.2,6.7,4.2,11l1.3,1.8C3.9,32,0.2,37,0,43.4
	c-0.1,5.3,0.9,8.6,4.2,12.2c3.2,3.5,8,5.1,13.3,5.1c5.1,0,9.8-1.3,14.5-3.9l1.9,2.7h12L24,28.9z M18.3,51.5c-2.2-0.1-5.1-1-6.7-3.5
	c-2.9-4.5-0.8-9.6,4.5-13.4l10.6,14.7C23.4,51,20.7,51.6,18.3,51.5"/>
</svg>
