<svg id="Layer_1" data-name="Layer 1" xmlns="http://www.w3.org/2000/svg" viewBox="0 0 40.9 34.92"><defs><style>.cls-1{fill:#ff3000;}</style></defs><title>DF_Video_IconsArtboard 39</title><path class="cls-1" d="M23.18,34.92l-1.1-.83-9.66-7.27-3-2.3A.53.53,0,0,0,9,24.39H.21c-.24,0-.21,0-.21-.22V10.71c0-.24,0-.22.22-.22H9a.49.49,0,0,0,.33-.11l10-7.55L23,.07S23.1,0,23.15,0h0v34.9Zm-3-6.05a.34.34,0,0,0,0-.14V6h0a.28.28,0,0,0-.13.09l-9.66,7.28a.51.51,0,0,1-.32.1H3.2c-.23,0-.2,0-.2.2v7.46c0,.24,0,.24.24.24h6.81a.44.44,0,0,1,.29.09c.24.2.5.38.75.57l9,6.75S20.11,28.87,20.17,28.87Z"/><path class="cls-1" d="M31,32.87l.67-.71a25.51,25.51,0,0,0,4.2-5.88,18.77,18.77,0,0,0,1.7-4.94,17.79,17.79,0,0,0,.28-2.41,17.6,17.6,0,0,0-.05-2.41,18,18,0,0,0-1.17-4.95A22.83,22.83,0,0,0,34,6.68,22.86,22.86,0,0,0,30.86,3c-.08-.07-.08-.07,0-.16l1-1.16c.26-.3.52-.59.77-.89.11-.11.08-.13.21,0a24.65,24.65,0,0,1,2.64,2.86A25.73,25.73,0,0,1,39,9.49a22.44,22.44,0,0,1,1.36,4.13c.15.71.27,1.42.35,2.14A18.89,18.89,0,0,1,40.9,18c0,.62,0,1.24-.08,1.85a19.73,19.73,0,0,1-.65,3.67,22.46,22.46,0,0,1-2.11,5.06,28.44,28.44,0,0,1-3.52,4.92c-.45.5-.85.94-1.32,1.41"/><path class="cls-1" d="M27.68,9.32l2-2.23.34.35a17.54,17.54,0,0,1,2.89,3.75,15.11,15.11,0,0,1,1.6,3.93,12.6,12.6,0,0,1,.35,2.2,11.85,11.85,0,0,1-.91,5.42,17,17,0,0,1-2.41,4.06,22.14,22.14,0,0,1-1.87,2.12l-.07.07c0,.05-.08.07-.13,0l-.06,0L27.5,27.05l0,0c-.08-.09-.1-.08,0-.18.24-.25.49-.5.73-.77a16.56,16.56,0,0,0,2.47-3.45,11.16,11.16,0,0,0,1.08-3.11,8.85,8.85,0,0,0,.09-2.12,10.47,10.47,0,0,0-1.36-4.33,16.2,16.2,0,0,0-2.61-3.54Z"/></svg>