<svg id="Layer_1" data-name="Layer 1" xmlns="http://www.w3.org/2000/svg" viewBox="0 0 40.9 34.92"><defs><style>.cls-1{fill:none;stroke:#ff3000;stroke-miterlimit:10;stroke-width:3px;}.cls-2{fill:#ff3000;}</style></defs><title>DF_Video_IconsArtboard 40</title><line class="cls-1" x1="0.99" y1="4.44" x2="38.01" y2="33.73"/><path class="cls-2" d="M15.19,9.75,20,6.11A.28.28,0,0,1,20.15,6h0V13.7l3,2.37V0h0s-.07,0-.11.07L19.37,2.83l-6.61,5Z"/><path class="cls-2" d="M23.18,20.12l-3-2.3V28.73a.34.34,0,0,1,0,.14c-.06,0-.09,0-.13-.07l-8.95-6.75c-.25-.19-.51-.37-.75-.57a.44.44,0,0,0-.29-.09H3.24c-.24,0-.24,0-.24-.24V13.69c0-.23,0-.2.2-.2H10a.51.51,0,0,0,.32-.1l2.23-1.69L10.16,9.78l-.8.6a.49.49,0,0,1-.33.11H.22c-.24,0-.22,0-.22.22V24.18c0,.25,0,.22.21.22H9a.53.53,0,0,1,.36.13l3,2.3,9.66,7.27,1.1.83V20.12Z"/><path class="cls-2" d="M30.48,13.07a10.47,10.47,0,0,1,1.36,4.33,8.85,8.85,0,0,1-.09,2.12,10.77,10.77,0,0,1-.87,2.66l2.41,1.9c.23-.44.44-.88.63-1.34a11.85,11.85,0,0,0,.91-5.42,12.6,12.6,0,0,0-.35-2.2,15.11,15.11,0,0,0-1.6-3.93A17.54,17.54,0,0,0,30,7.44l-.34-.35-2,2.23.19.21A16.2,16.2,0,0,1,30.48,13.07Z"/><path class="cls-2" d="M34,6.68a22.83,22.83,0,0,1,2.63,4.89,18,18,0,0,1,1.17,4.95,17.6,17.6,0,0,1,.05,2.41,17.79,17.79,0,0,1-.28,2.41A18.84,18.84,0,0,1,36,26.18l2.39,1.9a22.44,22.44,0,0,0,1.83-4.55,19.73,19.73,0,0,0,.65-3.67c.06-.61.08-1.23.08-1.85a18.89,18.89,0,0,0-.15-2.25c-.08-.72-.2-1.43-.35-2.14A22.44,22.44,0,0,0,39,9.49a25.73,25.73,0,0,0-3.55-5.88A24.65,24.65,0,0,0,32.85.75c-.13-.12-.1-.1-.2,0l-.78.89-1,1.16c-.09.09-.09.09,0,.16A22.86,22.86,0,0,1,34,6.68Z"/><path class="cls-2" d="M23.18,20.12l-3-2.3V28.73a.34.34,0,0,1,0,.14c-.06,0-.09,0-.13-.07l-8.95-6.75c-.25-.19-.51-.37-.75-.57a.44.44,0,0,0-.29-.09H3.24c-.24,0-.24,0-.24-.24V13.69c0-.23,0-.2.2-.2H10a.51.51,0,0,0,.32-.1l2.23-1.69L10.16,9.78l-.8.6a.49.49,0,0,1-.33.11H.22c-.24,0-.22,0-.22.22V24.18c0,.25,0,.22.21.22H9a.53.53,0,0,1,.36.13l3,2.3,9.66,7.27,1.1.83V20.12Z"/><path class="cls-2" d="M15.19,9.75,20,6.11A.28.28,0,0,1,20.15,6h0V13.7l3,2.37V0h0s-.07,0-.11.07L19.37,2.83l-6.61,5Z"/></svg>