<?xml version="1.0" encoding="utf-8"?>
<!-- Generator: Adobe Illustrator 16.0.4, SVG Export Plug-In . SVG Version: 6.00 Build 0)  -->
<!DOCTYPE svg PUBLIC "-//W3C//DTD SVG 1.1//EN" "http://www.w3.org/Graphics/SVG/1.1/DTD/svg11.dtd">
<svg version="1.1" id="Layer_1" xmlns="http://www.w3.org/2000/svg" xmlns:xlink="http://www.w3.org/1999/xlink" x="0px" y="0px"
	 width="240px" height="19.092px" viewBox="-24.162 -1.896 240 19.092" enable-background="new -24.162 -1.896 240 19.092"
	 xml:space="preserve">
<path d="M209.907,4.936c0-0.607,0.526-0.921,1.572-0.921c1.07,0,1.866,0.607,2.349,1.823l1.904-1.132
	c-0.858-1.782-2.093-2.619-4.294-2.619c-1.068,0-1.993,0.271-2.746,0.817c-0.755,0.523-1.13,1.257-1.13,2.2
	c0,1.761,1.445,2.83,3.625,3.249c1.591,0.315,2.22,0.65,2.22,1.342c0,0.69-0.774,1.151-1.634,1.151
	c-1.277,0-2.201-0.879-2.683-2.242l-2.115,1.341c0.772,1.847,2.348,3.123,4.756,3.123c1.235,0,2.243-0.338,2.977-0.984
	c0.755-0.651,1.13-1.488,1.13-2.474c0-1.759-1.047-2.684-3.478-3.207C210.725,6.089,209.907,5.586,209.907,4.936 M201.191,4.517
	v5.242c0,2.198,1.11,3.31,3.331,3.31c0.629,0,1.216-0.104,1.761-0.293l-0.252-2.181c-0.273,0.085-0.564,0.129-0.88,0.129
	c-0.881,0-1.321-0.483-1.321-1.468V4.517h2.265V2.379h-2.265V-0.43h-2.639v2.809h-1.614v2.137H201.191z M196.914,8.688
	c-0.65,1.279-1.403,1.905-2.742,1.905c-1.614,0-2.769-1.193-2.769-3.018c0-1.781,1.175-3.018,2.769-3.018
	c1.193,0,2.072,0.586,2.619,1.782l2.158-1.426c-0.733-1.78-2.474-2.829-4.757-2.829c-1.532,0-2.81,0.502-3.877,1.53
	c-1.07,1.027-1.594,2.347-1.594,3.96c0,1.636,0.523,2.956,1.55,3.982c1.05,1.006,2.348,1.509,3.921,1.509
	c2.242,0,3.876-1.007,4.861-2.997L196.914,8.688z M182.728,4.099c1.487,0,2.474,0.837,2.725,2.178h-5.574
	C180.275,5.041,181.365,4.099,182.728,4.099 M187.883,7.284c0-1.509-0.484-2.746-1.426-3.731c-0.943-0.984-2.159-1.466-3.646-1.466
	c-1.53,0-2.829,0.523-3.897,1.55c-1.047,1.026-1.573,2.326-1.573,3.94c0,1.615,0.526,2.934,1.551,3.962
	c1.049,1.025,2.307,1.529,3.793,1.529c2.284,0,3.898-1.006,4.884-3.038l-1.971-1.131c-0.649,1.277-1.593,1.906-2.871,1.906
	c-1.57,0-2.685-1.008-2.85-2.601h8.007V7.284z M171.534,4.517v5.242c0,2.198,1.113,3.31,3.334,3.31c0.628,0,1.215-0.104,1.758-0.293
	l-0.249-2.181c-0.274,0.085-0.565,0.129-0.881,0.129c-0.88,0-1.32-0.483-1.32-1.468V4.517h2.265V2.379h-2.265V-0.43h-2.642v2.809
	h-1.613v2.137H171.534z M168.874-1.896h-2.894V0.87h2.894V-1.896z M168.749,2.379h-2.64v10.395h2.64V2.379z M164.306,5.753
	c0-2.243-1.426-3.667-3.688-3.667c-1.572,0-2.766,0.65-3.604,1.928v-5.91h-2.64v14.67h2.64V7.493c0-1.698,1.069-2.934,2.556-2.934
	c1.343,0,2.098,0.818,2.098,2.222v5.994h2.64V5.753z M151.081,8.688c-0.649,1.279-1.403,1.905-2.742,1.905
	c-1.614,0-2.769-1.193-2.769-3.018c0-1.781,1.175-3.018,2.769-3.018c1.193,0,2.072,0.586,2.619,1.782l2.159-1.426
	c-0.733-1.78-2.475-2.829-4.758-2.829c-1.529,0-2.809,0.502-3.877,1.53c-1.07,1.027-1.593,2.347-1.593,3.96
	c0,1.636,0.523,2.956,1.551,3.982c1.047,1.006,2.346,1.509,3.919,1.509c2.241,0,3.878-1.007,4.863-2.997L151.081,8.688z
	 M142.805,2.211c-0.252-0.083-0.546-0.125-0.902-0.125c-1.279,0-2.243,0.65-2.894,1.948V2.379h-2.639v10.395h2.639V7.64
	c0-1.823,0.944-3.081,2.517-3.081c0.313,0,0.587,0.042,0.858,0.147L142.805,2.211z M128.363,1.352
	c0.169,0.587,0.357,1.111,0.547,1.593l1.342,3.521h-3.774l1.341-3.521L128.363,1.352z M124.066,12.774l1.47-3.835h5.658l1.467,3.835
	h2.953l-5.929-14.67h-2.641l-5.93,14.67H124.066z M104.368,2.211c-0.251-0.083-0.546-0.125-0.9-0.125
	c-1.279,0-2.242,0.65-2.893,1.948V2.379h-2.639v10.395h2.639V7.64c0-1.823,0.943-3.081,2.514-3.081c0.315,0,0.59,0.042,0.861,0.147
	L104.368,2.211z M91.397,4.099c1.487,0,2.473,0.837,2.723,2.178h-5.574C88.944,5.041,90.035,4.099,91.397,4.099 M96.552,7.284
	c0-1.509-0.482-2.746-1.425-3.731c-0.943-0.984-2.159-1.466-3.646-1.466c-1.53,0-2.83,0.523-3.899,1.55
	c-1.048,1.026-1.572,2.326-1.572,3.94c0,1.615,0.524,2.934,1.552,3.962c1.047,1.025,2.305,1.529,3.792,1.529
	c2.285,0,3.898-1.006,4.884-3.038l-1.97-1.133c-0.65,1.279-1.593,1.905-2.871,1.905c-1.573,0-2.684-1.006-2.851-2.599h8.006V7.284z
	 M80.311,4.517v5.242c0,2.198,1.111,3.31,3.332,3.31c0.628,0,1.215-0.104,1.76-0.293l-0.251-2.181
	c-0.273,0.085-0.566,0.129-0.88,0.129c-0.88,0-1.32-0.483-1.32-1.468V4.517h2.263V2.379h-2.263V-0.43h-2.641v2.809h-1.614v2.137
	H80.311z M72.158,4.936c0-0.607,0.524-0.921,1.572-0.921c1.069,0,1.865,0.607,2.348,1.823l1.907-1.132
	c-0.86-1.782-2.097-2.619-4.297-2.619c-1.068,0-1.991,0.271-2.745,0.817c-0.755,0.523-1.132,1.257-1.132,2.2
	c0,1.761,1.446,2.83,3.626,3.249c1.593,0.315,2.222,0.65,2.222,1.342c0,0.69-0.775,1.151-1.635,1.151
	c-1.278,0-2.2-0.879-2.682-2.242l-2.117,1.341c0.776,1.847,2.348,3.123,4.758,3.123c1.236,0,2.243-0.338,2.976-0.984
	c0.754-0.651,1.131-1.488,1.131-2.474c0-1.759-1.047-2.684-3.479-3.207C72.975,6.089,72.158,5.586,72.158,4.936 M69.036,2.211
	c-0.252-0.083-0.545-0.125-0.902-0.125c-1.278,0-2.243,0.65-2.893,1.948V2.379h-2.641v10.395h2.641V7.64
	c0-1.823,0.944-3.081,2.516-3.081c0.314,0,0.587,0.042,0.859,0.147L69.036,2.211z M53.61,9.778c-0.587-0.566-0.88-1.3-0.88-2.202
	c0-0.901,0.293-1.635,0.88-2.18c0.587-0.566,1.278-0.838,2.096-0.838c0.817,0,1.53,0.272,2.116,0.838
	c0.608,0.544,0.901,1.278,0.901,2.18c0,0.902-0.292,1.635-0.901,2.202c-0.586,0.544-1.299,0.814-2.116,0.814
	C54.889,10.595,54.198,10.322,53.61,9.778 M59.709,3.553c-1.11-0.984-2.453-1.466-4.003-1.466c-1.53,0-2.871,0.482-3.982,1.466
	c-1.11,0.964-1.676,2.306-1.676,4.024c0,1.72,0.566,3.061,1.676,4.044c1.111,0.965,2.452,1.446,3.982,1.446
	c1.55,0,2.893-0.484,4.003-1.446c1.132-0.983,1.698-2.324,1.698-4.044C61.407,5.858,60.842,4.517,59.709,3.553 M42.063,12.774V6.843
	h6.978V4.37h-6.978V0.578h7.607v-2.473H39.296v14.67H42.063z M23.391,16.966c0.398,0.146,0.88,0.23,1.446,0.23
	c1.614,0,2.682-0.757,3.438-2.534L33.22,2.379h-2.998l-2.557,6.75l-2.682-6.75h-2.998l4.276,10.479l-0.335,0.921
	c-0.23,0.65-0.607,0.985-1.173,0.985c-0.336,0-0.65-0.083-0.943-0.252L23.391,16.966z M21.567,5.691
	c0-2.159-1.405-3.604-3.647-3.604c-1.487,0-2.661,0.65-3.521,1.969V2.379H11.76v10.395h2.639V7.493c0-1.698,1.007-2.934,2.411-2.934
	c1.405,0,2.118,0.734,2.118,2.222v5.994h2.64V5.691z M10.104,5.691c0-2.159-1.404-3.604-3.646-3.604
	c-1.487,0-2.662,0.65-3.521,1.969V2.379h-2.64v10.395h2.64V7.493c0-1.698,1.005-2.934,2.41-2.934c1.404,0,2.116,0.734,2.116,2.222
	v5.994h2.641V5.691z M-6.893,10.93c-0.943,0-1.55-0.439-1.55-1.257s0.586-1.341,1.739-1.53l2.515-0.419v0.189
	C-4.189,9.841-5.279,10.93-6.893,10.93 M-0.857,12.774c-0.461-0.671-0.692-1.53-0.692-2.578V5.858c0-2.515-1.593-3.772-4.547-3.772
	c-1.32,0-2.368,0.314-3.186,0.943c-0.796,0.628-1.194,1.383-1.194,2.242c0,0.314,0.062,0.607,0.188,0.88l2.368-0.796
	c-0.021-0.062-0.042-0.147-0.042-0.252c0-0.691,0.691-1.173,1.865-1.173c1.278,0,1.907,0.523,1.907,1.572V5.9l-3.123,0.481
	c-2.159,0.336-3.708,1.447-3.708,3.436c0,1.951,1.424,3.25,3.5,3.25c1.571,0,2.746-0.65,3.478-1.949
	c0,0.692,0.168,1.235,0.504,1.654h2.683V12.774z M-21.395,10.217V0.661h1.845c3.039,0,4.987,1.677,4.987,4.799
	c0,3.102-1.948,4.756-4.987,4.756H-21.395z M-19.739,12.774c2.389,0,4.317-0.629,5.784-1.864c1.467-1.257,2.2-3.081,2.2-5.471
	c0-2.389-0.733-4.212-2.2-5.45c-1.467-1.257-3.396-1.885-5.784-1.885h-4.423v14.67H-19.739z"/>
<path d="M112.147,10.762c-0.546-0.015-1.274-0.239-1.683-0.876c-0.722-1.129-0.203-2.406,1.128-3.374l2.652,3.699
	C113.438,10.646,112.749,10.782,112.147,10.762 M113.588,5.084l1.509-1.08l-1.362-1.899l-1.509,1.084l-0.281-0.393
	c-0.771-1.083-0.858-1.983-0.221-2.512c0.601-0.498,1.521-0.449,2.259,0.543l1.899-1.362c-1.045-1.239-2.079-1.55-3.131-1.614
	c-0.907-0.055-1.688,0.078-2.648,0.826c-0.863,0.674-1.279,1.599-1.262,2.736c0.013,0.859,0.298,1.681,1.066,2.748l0.325,0.455
	c-1.688,1.243-2.629,2.498-2.666,4.121c-0.029,1.337,0.23,2.162,1.066,3.054c0.813,0.868,1.996,1.275,3.332,1.275
	c1.289,0,2.472-0.326,3.632-0.971l0.489,0.682h3.02L113.588,5.084z"/>
</svg>
