<?xml version="1.0" encoding="utf-8"?>
<!-- Generator: Adobe Illustrator 21.1.0, SVG Export Plug-In . SVG Version: 6.00 Build 0)  -->
<svg version="1.1" id="Layer_1" xmlns="http://www.w3.org/2000/svg" xmlns:xlink="http://www.w3.org/1999/xlink" x="0px" y="0px"
	 viewBox="0 0 916.5 74.2" style="enable-background:new 0 0 916.5 74.2;" xml:space="preserve">
<style type="text/css">
	.st0{fill:#FFFFFF;}
	.st1{fill:none;stroke:#FFFFFF;stroke-width:8.2;stroke-miterlimit:10;}
	.st2{fill:none;stroke:#FFFFFF;stroke-width:8.4;stroke-miterlimit:10;}
</style>
<rect id="logo-name-mask" width="916.5" height="74.4"/>
<g id="logo-name_1_">
	<path class="st0" d="M303.5,27.7c-3.8-3.4-8.4-5-13.6-5c-5.2,0-9.8,1.6-13.6,5c-3.8,3.3-5.7,7.9-5.7,13.7c0,5.9,1.9,10.4,5.7,13.8
		c3.8,3.3,8.4,4.9,13.6,4.9c5.3,0,9.9-1.6,13.6-4.9c3.9-3.4,5.8-7.9,5.8-13.8C309.3,35.5,307.4,30.9,303.5,27.7z M297.1,48.9
		c-2,1.9-4.4,2.8-7.2,2.8c-2.8,0-5.1-0.9-7.1-2.8c-2-1.9-3-4.4-3-7.5s1-5.6,3-7.4c2-1.9,4.4-2.9,7.1-2.9s5.2,0.9,7.2,2.9
		c2.1,1.9,3.1,4.4,3.1,7.4S299.2,47,297.1,48.9z"/>
	<path class="st0" d="M322.9,29.3v-5.9h-9v36h9V41.6c0-6.2,3-10.5,8.3-10.5c1.1,0,1.9,0.1,2.8,0.5l1.4-8.5c-0.9-0.3-1.6-0.4-2.9-0.4
		C328.2,22.7,324.9,24.9,322.9,29.3z"/>
	<path class="st0" d="M354.3,37.4c-5.6-1.1-8.4-2.8-8.4-5c0-2.1,1.8-3.1,5.4-3.1c3.6,0,6.4,2.1,8,6.2l6.5-3.9
		c-2.9-6.1-7.1-8.9-14.6-8.9c-3.6,0-6.8,0.9-9.4,2.8c-2.6,1.8-3.9,4.3-3.9,7.5c0,6,4.9,9.6,12.4,11.1c5.4,1.1,7.6,2.2,7.6,4.6
		c0,2.4-2.6,3.9-5.6,3.9c-4.4,0-7.5-3-9.1-7.6l-7.2,4.6c2.6,6.3,8,10.6,16.2,10.6c4.2,0,7.6-1.1,10.1-3.4c2.6-2.2,3.9-5.1,3.9-8.4
		C366.2,42.3,362.6,39.2,354.3,37.4z"/>
	<path class="st0" d="M122.2,22.7c-5.1,0-9.3,2.2-12.3,6.7v-6h-9v36h9V41.1c0-5.8,3.2-10,8-10c4.8,0,7,2.5,7,7.6v20.7h10V34.9
		C134.9,27.6,129.8,22.7,122.2,22.7z"/>
	<path class="st0" d="M94.9,35.5c0-8.6-5.5-12.9-15.6-12.9c-4.5,0-8.1,1.1-10.9,3.2c-2.7,2.1-4.1,4.7-4.1,7.6c0,1.1,0.2,2.1,0.6,3
		l8.1-2.7c-0.1-0.2-0.1-0.5-0.1-0.9c0-2.4,2.5-4,6.5-4c4.4,0,6.6,1.8,6.6,5.4v1.4l-10.8,1.6c-7.4,1.1-12.7,4.9-12.7,11.7
		c0,6.6,4.8,11.1,11.9,11.1c5.4,0,9.3-2.1,11.8-6.5c0,2.4,0.6,3.8,1.7,5.8H97c-1.6-3-2.1-5.5-2.1-9.1C94.9,50.3,94.9,35.5,94.9,35.5
		z M85.9,42.5c0,6.6-3.8,10.3-9.3,10.3c-3.2,0-5.3-1.5-5.3-4.3s2.1-4.6,6-5.2l8.7-1.4V42.5z"/>
	<path class="st0" d="M387.3,52.1c-3,0-4.4-1.6-4.4-5V31.4h8v-8h-8v-9h-9v9h-6v8h6v17.4c0,7.5,3.7,11.3,11.3,11.3c2.1,0,4.1-0.4,6-1
		l-0.8-7.4C389.4,52,388.4,52.1,387.3,52.1z"/>
	<polygon class="st0" points="233.9,59.4 242.9,59.4 242.9,38.4 266.9,38.4 266.9,30.4 242.9,30.4 242.9,17.4 268.9,17.4 268.9,9.4 
		233.9,9.4 	"/>
	<path class="st0" d="M52.4,15.7c-5-4.3-11.6-6.3-19.7-6.3H17.9v50h14.7c8.1,0,14.7-2.3,19.7-6.5c5-4.3,7.5-10.5,7.5-18.6
		C59.9,26.1,57.4,19.9,52.4,15.7z M33.3,50.4h-6.4v-33h6.4c10.4,0,17,5.9,17,16.6C50.3,44.6,43.6,50.4,33.3,50.4z"/>
	<path class="st0" d="M161.2,22.7c-5.1,0-9.3,2.2-12.3,6.7v-6h-9v36h9V41.1c0-5.8,3.7-10,8.5-10s7.5,2.5,7.5,7.6v20.7h9V34.9
		C173.9,27.6,168.8,22.7,161.2,22.7z"/>
	<path class="st0" d="M194.3,46.4l-9.1-23h-10.2l14.6,35.9l-1.1,3.2c-0.8,2.2-2.1,3.4-4,3.4c-1.1,0-2.2-0.3-3.2-0.8l-1.4,8.4
		c1.4,0.5,3,0.8,4.9,0.8c5.5,0,9.1-2.7,11.7-8.8l16.9-42H203L194.3,46.4z"/>
	<path class="st0" d="M442.9,29.3v-5.9h-9v36h9V41.6c0-6.2,3.2-10.5,8.6-10.5c1.1,0,2,0.1,2.9,0.5l1.4-8.5c-0.9-0.3-1.9-0.4-3.1-0.4
		C448.4,22.7,444.9,24.9,442.9,29.3z"/>
	<path class="st0" d="M411.9,22.7c-5.2,0-9.6,1.8-13.3,5.3c-3.6,3.5-5.4,7.9-5.4,13.4c0,5.5,1.8,10,5.3,13.5
		c3.6,3.5,7.9,5.2,12.9,5.2c7.8,0,13.3-3.4,16.6-10.4l-6.7-3.9c-2.2,4.4-5.4,6.4-9.8,6.4c-5.4,0-9.1-2.9-9.7-8.9h27v-3
		c0-5.1-1.5-9.4-4.7-12.7C420.9,24.3,416.9,22.7,411.9,22.7z M401.9,37.4c1.4-5,5.1-7.4,9.7-7.4c5.1,0,8.4,2.4,9.3,7.4H401.9z"/>
</g>
<g>
	<path class="st1" d="M491.9,15.8c-1.4-1.9-6.9-6.6-12.8-2.8c-5.8,3.8-4.1,9.8-2,12.7s26.3,36.7,26.3,36.7"/>
	<path class="st2" d="M490.3,25.9c0,0-9.4,6.6-13,9.2c-4.4,3.1-9.2,9.9-4.5,16.9c4.2,6.3,13.8,5.1,18.2,2.1c4.4-3,5.2-3.4,5.2-3.4"
		/>
	<rect x="493.5" y="59.1" width="15.4" height="6"/>
</g>
<rect width="458.9" height="74.2"/>
<g>
	<path class="st0" d="M512.9,59.4l20.2-50h9l20.2,50h-10.1l-5-13.1h-19.3l-5,13.1H512.9z M535.7,25.8l-4.5,12h12.9l-4.5-12
		c-0.6-1.6-1.3-3.4-1.9-5.4L535.7,25.8z"/>
	<path class="st0" d="M585.3,31.9c-0.9-0.4-1.9-0.5-2.9-0.5c-5.3,0-8.6,4.3-8.6,10.5v17.5h-9V24h9v5.7c2.3-4.4,5.6-6.7,9.8-6.7
		c1.3,0,2.3,0.1,3,0.4L585.3,31.9z"/>
	<path class="st0" d="M622.2,50.2c-3.4,6.8-9,10.2-16.5,10.2c-5.3,0-9.8-1.8-13.4-5.2c-3.5-3.5-5.3-7.9-5.3-13.6
		c0-5.6,1.8-10,5.4-13.5c3.7-3.5,7.9-5.2,13.2-5.2c7.8,0,13.8,3.5,16.2,9.6l-7.3,4.8c-1.9-4-4.8-6.1-9-6.1c-5.4,0-9.5,4.2-9.5,10.3
		S600,52,605.5,52c4.5,0,7.2-2.1,9.3-6.6L622.2,50.2z"/>
	<path class="st0" d="M659.8,59.4h-9V39c0-4.8-2.5-7.6-7.2-7.6c-5,0-8.7,4.2-8.7,10v18h-9V9.3h9v20.2c2.9-4.4,6.9-6.6,12.2-6.6
		c7.7,0,12.6,4.8,12.6,12.5L659.8,59.4L659.8,59.4z"/>
	<path class="st0" d="M665.6,18.8V9.3h9.8v9.5H665.6z M666.1,59.4V24h9v35.5H666.1z"/>
	<path class="st0" d="M679.2,31.3V24h5.6v-9.6h9V24h7.7v7.3h-7.7v16.2c0,3.4,1.5,5,4.5,5c1,0,2-0.1,3-0.4l0.9,7.4
		c-1.9,0.6-3.9,1-6.1,1c-7.6,0-11.4-3.8-11.4-11.2v-18H679.2z"/>
	<path class="st0" d="M739.5,43.8h-27.3c0.6,5.4,4.4,8.8,9.7,8.8c4.4,0,7.6-2.1,9.8-6.6l6.7,3.9c-3.4,6.9-8.8,10.3-16.7,10.3
		c-5,0-9.3-1.8-12.9-5.2c-3.5-3.5-5.3-7.9-5.3-13.5s1.8-10,5.3-13.4c3.7-3.5,8.1-5.3,13.2-5.3c5,0,9.2,1.6,12.4,5
		c3.2,3.4,4.8,7.6,4.8,12.7v3H739.5z M712.3,37.2h19.1c-0.9-4.5-4.2-7.4-9.3-7.4C717.3,29.8,713.7,33,712.3,37.2z"/>
	<path class="st0" d="M777.5,50.2c-3.4,6.8-9,10.2-16.5,10.2c-5.3,0-9.8-1.8-13.4-5.2c-3.5-3.5-5.3-7.9-5.3-13.6
		c0-5.6,1.8-10,5.4-13.5c3.7-3.5,7.9-5.2,13.2-5.2c7.8,0,13.8,3.5,16.2,9.6l-7.3,4.8c-1.9-4-4.8-6.1-9-6.1c-5.4,0-9.5,4.2-9.5,10.3
		s3.9,10.3,9.5,10.3c4.5,0,7.2-2.1,9.3-6.6L777.5,50.2z"/>
	<path class="st0" d="M779.1,31.3V24h5.6v-9.6h9V24h7.7v7.3h-7.7v16.2c0,3.4,1.5,5,4.5,5c1,0,2-0.1,3-0.4l0.9,7.4
		c-1.9,0.6-3.9,1-6.1,1c-7.6,0-11.4-3.8-11.4-11.2v-18H779.1z"/>
	<path class="st0" d="M805.5,24h9v19.9c0,5.3,2.4,8.1,7.2,8.1c4.9,0,8.2-4,8.2-9.7V24h9v35.5h-9v-5.6c-2.4,4.4-6.2,6.6-11.2,6.6
		c-7.7,0-13.1-5.3-13.1-14.4L805.5,24L805.5,24z"/>
	<path class="st0" d="M863.9,31.9c-0.9-0.4-1.9-0.5-2.9-0.5c-5.3,0-8.6,4.3-8.6,10.5v17.5h-9V24h9v5.7c2.3-4.4,5.6-6.7,9.8-6.7
		c1.3,0,2.3,0.1,3,0.4L863.9,31.9z"/>
	<path class="st0" d="M900.4,43.8h-27.3c0.6,5.4,4.4,8.8,9.7,8.8c4.4,0,7.6-2.1,9.8-6.6l6.7,3.9c-3.4,6.9-8.8,10.3-16.7,10.3
		c-5,0-9.3-1.8-12.9-5.2c-3.5-3.5-5.3-7.9-5.3-13.5s1.8-10,5.3-13.4c3.7-3.5,8.1-5.3,13.2-5.3c5,0,9.2,1.6,12.4,5s4.8,7.6,4.8,12.7
		v3H900.4z M873.2,37.2h19.1c-0.9-4.5-4.2-7.4-9.3-7.4C878.2,29.8,874.5,33,873.2,37.2z"/>
</g>
<rect x="508.9" width="407.6" height="74.2"/>
</svg>
