<svg class="addon-squiggle-line" width="76px" height="9px" viewBox="0 0 76 9" version="1.1" xmlns="http://www.w3.org/2000/svg" xmlns:xlink="http://www.w3.org/1999/xlink">
    <g stroke="none" stroke-width="1" fill="none" fill-rule="evenodd" stroke-linecap="round">
        <path d="M34.9637331,-31.9637331 C34.9637331,-24.67403 40.9637331,-24.67403 40.9637331,-17.3843269 C40.9637331,-10.0916784 34.9637331,-10.0916784 34.9637331,-2.79804822 C34.9637331,4.49165489 40.9637331,4.49165489 40.9637331,11.781358 C40.9637331,19.0769518 34.9637331,19.0769518 34.9637331,26.3735273 C34.9637331,33.6681393 40.9637331,33.6681393 40.9637331,40.9637331" stroke="#E8CC66" stroke-width="2" transform="translate(37.963733, 4.500000) rotate(-270.000000) translate(-37.963733, -4.500000) "></path>
    </g>
</svg>
<svg class="short-squiggle-line" width="105px" height="9px" viewBox="0 0 105 9" version="1.1" xmlns="http://www.w3.org/2000/svg" xmlns:xlink="http://www.w3.org/1999/xlink">
    <g stroke="none" stroke-width="1" fill="none" fill-rule="evenodd" stroke-linecap="round">
        <path d="M55.4637331,-46.5362669 C55.4637331,-39.2465638 49.4637331,-39.2465638 49.4637331,-31.9568607 C49.4637331,-24.6671576 55.4637331,-24.6671576 55.4637331,-17.3764727 C55.4637331,-10.084806 49.4637331,-10.084806 49.4637331,-2.79313933 C49.4637331,4.49656378 55.4637331,4.49656378 55.4637331,11.7872487 C55.4637331,19.0779336 49.4637331,19.0779336 49.4637331,26.3696002 C49.4637331,33.6612669 55.4637331,33.6612669 55.4637331,40.95097 C55.4637331,48.2436184 49.4637331,48.2436184 49.4637331,55.5362669" stroke="#E8CC66" stroke-width="2" transform="translate(52.463733, 4.500000) rotate(-270.000000) translate(-52.463733, -4.500000) "></path>
    </g>
</svg>