<?xml version="1.0" encoding="UTF-8"?>
<svg width="156px" height="116px" viewBox="0 0 156 116" version="1.1" xmlns="http://www.w3.org/2000/svg" xmlns:xlink="http://www.w3.org/1999/xlink">

    <g id="v5" stroke="none" stroke-width="1" fill="none" fill-rule="evenodd">
        <path d="M92.1663801,52.4915365 C91.8925366,52.4177458 91.7270113,52.2194039 91.5028722,52.4215058 C91.4737997,52.4473561 91.4873981,52.5737873 91.5239731,52.6099777 C91.7143507,52.7965695 91.9066039,52.7970395 92.1663801,52.4915365 M129.182622,48.9274919 L129.109941,49.1305338 C129.583072,49.3396859 130.056202,49.5493079 130.529332,49.75893 C130.547151,49.7180396 130.56497,49.6771492 130.582319,49.6367288 C130.116222,49.3998465 129.649657,49.1634342 129.182622,48.9274919 M87.8603775,78.9824042 C87.8444346,78.9114335 87.8284916,78.8409328 87.8120798,78.7699621 C87.1255952,78.8973333 86.4245744,78.9603139 85.7868565,79.3161074 C86.5071026,79.3504177 87.2029654,79.2658169 87.8603775,78.9824042 M99.254896,77.5220999 C99.2511447,77.4882596 99.2483313,77.4548893 99.2450489,77.421049 C99.155487,77.4158789 99.0649874,77.3994288 98.9768322,77.4074188 C97.9199086,77.5056498 96.8611093,77.5963607 95.8055924,77.7124518 C94.9348261,77.8083327 94.0673422,77.9281839 93.2003272,78.0532051 C92.9832217,78.0846954 92.7042202,78.0790554 92.6643628,78.4451889 C92.8242612,78.4771492 92.9724368,78.5476499 93.1051384,78.5264997 C95.1561517,78.1984365 97.2052894,77.8590932 99.254896,77.5220999 M50.2279874,63.8068966 C50.1609333,63.7862164 50.094348,63.7660062 50.0282317,63.745796 C49.8903721,63.955888 49.7314115,64.15517 49.6188731,64.3784221 C49.0299218,65.5426234 48.4639472,66.7185749 47.8660866,67.8785462 C47.6306937,68.3358606 47.6644552,68.4857921 48.2609091,68.7344245 C48.8296972,67.551893 49.4069256,66.3674815 49.9668045,65.1750799 C50.0845009,64.9245674 50.1604644,64.6486748 50.2172025,64.3765421 C50.2556531,64.1937103 50.2270496,63.9967784 50.2279874,63.8068966 M92.7867484,75.0813662 C92.8026913,75.0851262 92.8186343,75.0893563 92.8345772,75.0931163 C92.804098,75.2970983 92.7717432,75.5010803 92.7440775,75.7055323 C92.6456064,76.4373294 92.6995311,76.5050101 93.4394714,76.5614106 C93.5881159,76.5731607 93.739105,76.5759807 93.8882185,76.5665807 C94.5212473,76.5275703 95.1542761,76.4843299 95.7873049,76.4387394 C96.75326,76.3691787 97.7215596,76.3202983 98.6837633,76.2159572 C99.3327351,76.1454566 99.3693101,75.9668548 98.9969954,75.4352797 C98.257055,74.3782394 97.5354022,73.308509 96.8212519,72.2336085 C96.3964193,71.5939323 96.0133196,70.9255858 95.5875491,70.2863796 C95.269628,69.8083849 95.0947245,69.819195 94.7800857,70.2896696 C94.0673422,71.3547 93.5913983,72.5353515 93.1506227,73.7282231 C92.9893176,74.1643873 92.9058516,74.6296918 92.7867484,75.0813662 M85.8651645,77.4920197 C86.5282036,77.3829786 87.179051,77.3115379 87.8069218,77.1489163 C87.9686958,77.1075559 88.1468817,76.7865428 88.1628246,76.5816208 C88.2542621,75.4366897 88.5145073,74.3288889 88.7438044,73.207928 C88.9510627,72.1960082 89.3290044,71.2696291 89.7880675,70.3780305 C90.464236,69.0643677 91.2079276,67.7836052 92.1110487,66.6043638 C92.4903971,66.109449 92.4683583,65.9397773 92.0219558,65.5054931 C91.8479901,65.3358214 91.6660529,65.1741399 91.4813023,65.0162183 C90.6447665,64.2994614 89.8162021,63.5728343 88.9632544,62.8762875 C88.6472089,62.618255 88.4812147,62.6887557 88.3461685,63.0755695 C88.0179314,64.0113486 87.6896942,64.9471277 87.3867782,65.8913668 C86.9061452,67.3873914 86.4611494,68.894696 85.9730139,70.3883706 C85.4262646,72.0601768 84.8490361,73.721643 84.2821236,75.3868692 C84.1738054,75.7036523 84.2342948,75.9673248 84.4725012,76.2027971 C84.7758861,76.5036 85.063328,76.8213231 85.3709332,77.117426 C85.5144197,77.2556074 85.6897921,77.3613584 85.8651645,77.4920197 M77.3830475,72.3529897 C76.8644328,72.4211403 76.5136879,72.0399666 76.1990492,71.5953423 C76.1235546,71.4881813 76.0522803,71.3669201 75.9495889,71.2926594 C75.4698938,70.944386 75.4661425,70.4936516 75.625103,69.9865167 C75.8032889,69.4187511 76.0218011,69.29749 76.5854312,69.4930119 C77.0454321,69.6523434 77.5124667,69.7952248 77.9579314,69.9879267 C78.3808884,70.1702885 78.7986874,70.3785005 79.1846006,70.6280729 C79.6220938,70.9100756 80.0103515,71.2686891 80.44128,71.562912 C81.0733709,71.9943762 81.1549613,72.4507506 80.6119633,72.9686957 C80.3873553,73.1834878 80.3353063,73.3926398 80.3972024,73.6690025 C80.4473758,73.8884946 80.4717591,74.1155068 80.5416268,74.3279489 C80.5899245,74.4722403 80.6973049,74.5963215 80.7779575,74.7293328 C80.921444,74.6061916 81.1347982,74.5107807 81.1957565,74.3552092 C81.4198956,73.7808636 81.6027706,73.1895978 81.7842388,72.5992721 C82.0932507,71.5962823 82.3769414,70.5862425 82.6948625,69.5865428 C82.9555766,68.7654448 83.2463009,67.9537469 83.5323362,67.141109 C84.0040599,65.7987759 84.4706255,64.4540929 84.9639191,63.1192799 C85.20447,62.4673835 85.1646127,62.3273222 84.4982912,62.0763397 C83.8863634,61.8455675 83.2702153,61.6241953 82.6596942,61.3901331 C81.595268,60.9816991 80.5514739,60.5088745 79.4668845,60.1676512 C77.6836189,59.6059957 75.8642473,59.1599614 74.0795749,58.604886 C72.6175129,58.1503916 71.1779585,57.6188164 69.7360595,57.1022814 C68.0808064,56.5091356 66.4457165,55.8567693 64.7796785,55.3002838 C62.6527017,54.5896369 60.4994659,53.9579508 58.3654555,53.2679841 C58.0897363,53.1786832 57.9209286,53.2435438 57.7858824,53.4353057 C57.5495517,53.770419 57.3165033,54.1125823 57.1275325,54.4754258 C56.4171335,55.8431391 56.4391723,55.826219 57.6967895,56.7337978 C59.0608494,57.7179874 60.4084973,58.7270872 61.7359822,59.7610972 C62.7797763,60.5746751 63.7696458,61.4568737 64.8054685,62.2812617 C65.6241858,62.9331581 66.4977655,63.5164337 67.3089802,64.1767902 C69.0256605,65.5750538 70.480689,67.24733 72.037002,68.8115052 C73.1844253,69.9648965 74.2272817,71.2216887 75.3507906,72.3995201 C76.346287,73.4429303 77.3844542,74.44592 78.4155878,75.4545498 C78.5318775,75.5678209 78.7245996,75.6021313 78.8816846,75.673572 C78.9224797,75.4912102 79.0209509,75.2989783 78.9923474,75.1283667 C78.9065368,74.6118316 78.7536721,74.1065767 78.6589522,73.5914517 C78.4873311,72.6528526 78.4076163,72.5583817 77.3830475,72.3529897 M112.631029,78.5175696 C112.681671,78.0156047 112.751539,77.5145799 112.780611,77.011205 C112.96208,73.825044 111.937511,71.0675272 109.75192,68.7654448 C108.827229,67.7920653 107.806412,66.9498171 106.467204,66.5164729 C105.290708,66.1357692 104.084202,66.0821887 102.887544,65.906407 C102.615107,65.8664566 102.323913,65.8810267 102.051945,65.9299072 C101.2065,66.0812487 100.361524,66.2387002 99.5259261,66.4370421 C98.7803589,66.6147039 98.043232,66.8257359 97.4434958,67.3606011 C96.9788058,67.7746752 96.9455131,67.8193256 97.3023538,68.3236405 C98.0052503,69.3181702 98.7165871,70.3075298 99.4312062,71.2935994 C100.716958,73.0673966 102.004586,74.8388439 103.300185,76.605121 C103.476495,76.8452934 103.688911,77.0633755 103.907892,77.2668875 C104.254886,77.5893106 104.380554,77.9803544 104.186425,78.3920784 C104.125467,78.5213297 103.965568,78.659981 103.829584,78.6872413 C103.11731,78.8301227 102.395188,78.9250636 101.681975,79.0618349 C98.9838659,79.57978 96.288101,80.1094751 93.5904605,80.6283602 C93.3077076,80.6824107 93.180164,80.822472 93.2842621,81.0955447 C93.3958627,81.3892976 93.5046499,81.6966805 93.681898,81.950953 C94.0246714,82.4425778 94.4424704,82.8815621 94.7791479,83.3764769 C95.588018,84.5651184 96.7499776,85.3227658 97.9766467,85.9671421 C99.2722457,86.6472387 100.697264,86.9771819 102.136349,87.2173542 C102.464118,87.2718748 102.806891,87.3437855 103.130908,87.3047751 C108.072284,86.7153894 111.771048,82.9609928 112.631029,78.5175696 M41.4251358,70.7958645 C39.7309632,69.6683236 37.9458219,68.9412265 36.0579894,68.4726319 C34.3502183,68.0491578 32.5932117,67.967847 30.84699,67.8254356 C28.465395,67.6303838 26.1578878,67.9983973 23.9277508,68.8199653 C23.0405726,69.1470885 22.1782467,69.5578725 21.3398352,69.9982668 C20.4348385,70.4739114 19.5345309,70.9749363 18.6975261,71.559152 C16.1508747,73.3367092 14.2241226,75.6486617 12.9538448,78.4959494 C12.6814079,79.1069554 12.4113156,79.7203113 12.1726403,80.3449474 C11.8209577,81.2652164 11.3984695,82.1746752 11.1855843,83.1287845 C10.8193654,84.7705104 10.560527,86.4390267 10.3162247,88.1051929 C10.1422591,89.2914844 10.2243183,90.4951661 10.4376725,91.6687675 C10.7049513,93.1351818 10.9656654,94.6171062 11.4158192,96.03229 C12.0591641,98.0542496 13.1273415,99.8755173 14.4956216,101.509253 C15.3959292,102.583684 16.3853298,103.565523 17.5355666,104.366881 C18.2529992,104.866496 19.0210742,105.29326 19.7460094,105.783005 C21.4111096,106.909136 23.1878104,107.803084 25.1389459,108.290479 C26.5686531,108.647683 28.0147723,108.967286 29.5063757,108.919345 C30.2495984,108.895375 30.9942278,108.794794 31.7341682,108.824874 C33.4841411,108.896785 35.1886298,108.662253 36.8673284,108.196948 C38.9164661,107.628713 40.8141458,106.734764 42.5083184,105.443191 C43.2337225,104.889526 43.8901968,104.24468 44.5982513,103.665634 C46.4865528,102.120729 47.9593998,100.246821 49.0843154,98.0852699 C49.7947144,96.7213167 50.2443993,95.2628925 50.6729832,93.7974182 C51.3074188,91.6288171 51.6975521,89.4202657 51.4832601,87.1520236 C51.3871335,86.1339937 51.175655,85.1258339 51.0059095,84.1153241 C50.6762656,82.1483549 50.0488637,80.2824368 49.070717,78.5429499 C48.7565472,77.9836444 48.3959552,77.4506593 48.0330187,76.8673836 C47.7835584,77.1254161 47.6124062,77.2979078 47.4468809,77.4750995 C46.8968492,78.0626052 46.370263,78.6740812 45.7944413,79.2347966 C44.8838176,80.1216952 43.9220827,80.9559533 43.0156793,81.847082 C41.6497438,83.1903551 40.170332,84.3954468 38.6266796,85.5211077 C37.553813,86.3031953 36.4748506,87.0848129 35.3461836,87.7813597 C34.1903199,88.4948267 33.0729069,89.3178047 31.6929041,89.5800672 C30.9304561,89.7248286 30.168008,89.6891083 29.4501065,89.3859553 C29.2981796,89.3215647 29.1828276,89.048962 29.1485972,88.8553202 C29.1068642,88.6118578 29.3033376,88.4990567 29.5377927,88.4760265 C29.6498622,88.4647464 29.7614629,88.4501762 29.8707189,88.425736 C30.1426869,88.3651054 30.4404449,88.2433742 30.3522897,87.9308212 C30.2946138,87.7268392 30.0249904,87.5745577 29.8308616,87.4236862 C29.7722478,87.3780958 29.6479866,87.398776 29.5584247,87.4156962 C29.2878635,87.4664567 29.1148357,87.3560056 29.0548152,87.0989131 C28.9915123,86.8267804 29.1701671,86.6533487 29.3886792,86.5837881 C29.614694,86.5118774 29.8669677,86.4944872 30.1061119,86.5001273 C31.3984285,86.5311476 32.5050566,86.064433 33.5014908,85.2738853 C34.2043872,84.7159899 34.8843071,84.1195541 35.6331567,83.6321594 C36.8523233,82.8383216 37.9256588,81.8823324 38.9347536,80.8492623 C40.3339817,79.4162184 41.7383678,77.9855245 43.0827334,76.50078 C43.8531529,75.6500717 44.5082205,74.6950225 45.2284666,73.7700535 C44.8392711,73.4504504 44.5171298,73.1863078 44.2109314,72.9353253 C43.2979632,74.1065767 42.3948421,75.2251876 41.5362675,76.3766988 C40.6500272,77.5658104 39.7426859,78.7271917 38.5783818,79.6648508 C37.6607245,80.404638 36.8026188,81.2229159 35.8502621,81.9138227 C34.3502183,83.0018832 32.7193486,83.8718617 30.9712512,84.5035478 C30.209741,84.7785005 29.4304122,84.9871825 28.6135706,84.7935407 C28.3847424,84.7390201 28.1526319,84.6351491 27.9660056,84.4955578 C27.8553428,84.412837 27.7554649,84.1966349 27.7868819,84.0772537 C27.8164233,83.9686826 28.0232127,83.8610516 28.1648235,83.8403714 C28.381929,83.8084111 28.6145085,83.8836118 28.8316139,83.8516515 C28.9741626,83.8305013 29.1007684,83.70078 29.2339389,83.6194692 C29.1373434,83.4967981 29.0637244,83.3355865 28.9385254,83.2603858 C28.7509613,83.1480547 28.4986876,83.1339545 28.3270665,83.0061133 C28.2037431,82.9139924 28.1005828,82.6987303 28.1132434,82.5492688 C28.1230905,82.4383478 28.3176883,82.2992264 28.4569546,82.2508159 C29.0885767,82.0313238 29.7422375,81.8715222 30.3654192,81.6318199 C32.4567588,80.8285821 34.2728481,79.6056302 35.8572958,78.0151347 C37.2593374,76.6074711 38.6313687,75.1852372 39.6700048,73.4706605 C40.2115961,72.5767119 40.8155525,71.7208335 41.4251358,70.7958645 M44.5973135,65.4552026 C45.341474,64.1227396 46.1095489,62.8368071 46.7889999,61.5048142 C47.4496944,60.2085416 48.0095732,58.8610385 48.6336927,57.5450257 C48.8085962,57.1756021 49.0364866,56.8268587 49.2723484,56.4917454 C49.4791378,56.1989326 49.749699,56.0847215 50.0905968,56.3300639 C50.4385281,56.5810463 50.7948999,56.8198086 51.1615877,57.0421208 C51.2942893,57.1224916 51.4654415,57.1389417 51.6192441,57.1840622 C51.6342492,57.0289607 51.6464409,56.8738591 51.6642595,56.7192276 C51.6914563,56.4870454 51.6647284,56.2276029 51.7613239,56.0287909 C52.1758405,55.1715026 52.6588181,54.3471146 53.0564539,53.4823062 C53.6650994,52.1587733 54.2254471,50.8136202 54.8008,49.4750472 C54.9686698,49.0844734 55.0943378,48.7216299 55.5571522,48.5030777 C55.8413117,48.3691264 56.0026169,47.9287322 56.1676733,47.600199 C56.2853697,47.3651967 56.3716492,47.2077451 56.6839434,47.195525 C56.9934242,47.1833049 57.2775838,46.5910991 57.0731389,46.3565669 C56.7402126,45.9749232 56.8246165,45.5528591 56.811487,45.133615 C56.7927306,44.518849 56.7974197,44.4948788 56.2000281,44.4948788 C55.6997009,44.4944088 55.2003115,44.5620894 54.6999843,44.5785396 C54.3300141,44.5898197 53.9586372,44.5780696 53.5891359,44.5540993 C53.4658125,44.5461093 53.3317042,44.4897087 53.2271372,44.418738 C52.5851991,43.9830438 52.235861,42.7210815 52.4932927,42.0038545 C52.6283389,41.6278509 52.6874216,41.2128368 52.7122738,40.8109829 C52.7652607,39.9630947 52.9448533,39.176777 53.3199815,38.3928094 C53.9511346,37.0735066 54.1391676,35.673363 53.8465677,34.1975486 C53.4390847,32.1431586 53.0995937,30.0737285 52.779328,28.0033584 C52.6311523,27.0454891 52.6081757,26.0683496 52.5036088,25.1024902 C52.4698472,24.7894671 52.3751274,24.4792641 52.2752495,24.1789312 C52.199286,23.949099 52.0994082,23.7554571 51.7589793,23.7803673 C51.5957986,23.7921174 51.3871335,23.5862554 51.2483361,23.4339739 C50.8957156,23.0471602 50.5726365,22.6335562 50.2359589,22.2321723 C50.0432368,22.00281 49.8880275,22.0244302 49.6310647,22.208202 C48.4156494,23.0767705 47.8220091,24.3053624 47.4900206,25.7092661 C47.3953008,26.1083 47.2869825,26.5125039 47.1148925,26.8809875 C47.0225171,27.0774494 46.8054117,27.2696812 46.600029,27.348642 C45.8985393,27.6203047 45.4118105,28.0729191 45.0999852,28.7652358 C44.8547452,29.3095011 44.5091583,29.8072359 44.2400039,30.3421011 C44.0833879,30.6532442 43.8681581,30.847356 43.5314805,30.9145667 C42.9312754,31.0353579 42.4281348,31.3042005 41.9836079,31.7502348 C41.5930057,32.1431586 41.1236265,32.4660518 40.6575298,32.7729648 C40.2763057,33.0248872 39.8646026,33.2486094 39.4369564,33.4037109 C39.2376696,33.4760916 38.9492898,33.4032409 38.7359357,33.31347 C38.3594007,33.1550785 38.0292879,33.2185291 37.6654136,33.3506004 C37.1228845,33.5480023 37.1031903,33.521212 36.7576034,32.9948069 C36.5161147,33.3407303 36.2221079,33.5287321 35.7710163,33.5024119 C35.2702202,33.4732716 35.2331763,33.4836117 35.2575596,32.9750667 C35.2599042,32.9200762 35.2566218,32.8650857 35.2547461,32.7325444 C34.9710555,32.7875349 34.707059,32.8359454 34.4444693,32.8909359 C34.3347443,32.9139661 34.2292395,32.9595566 34.1195145,32.9802368 C33.479452,33.101968 33.338779,32.9647266 33.4297476,32.3184703 C33.4452216,32.2108393 33.4447527,32.1008582 33.4560065,31.9203765 C33.1127642,31.9321266 32.8032835,31.9532768 32.4942717,31.9509268 C31.9526803,31.9466967 31.4087445,31.9542168 30.8699666,31.9067463 C30.3715151,31.8625659 30.2721061,31.6087634 30.5351647,31.1848193 C30.690374,30.9361869 30.8385496,30.6833244 31.0359609,30.3562013 C30.7860317,30.3063808 30.6322292,30.2575003 30.4770199,30.2485702 C29.938242,30.2175499 29.3985263,30.1931097 28.8588107,30.1804196 C28.2858024,30.1667894 27.9191146,29.7813857 28.4400738,29.1214993 C28.2135902,29.0763788 28.0218059,29.0364284 27.8290838,29.0007081 C26.8607842,28.8192863 25.890609,28.6496147 24.9265295,28.4484527 C24.7769472,28.4174324 24.5725023,28.2660909 24.5401475,28.1344897 C24.4730933,27.860007 24.7314629,27.8266367 24.934501,27.7786962 C25.2524221,27.7030255 25.5689365,27.6207747 25.8952981,27.4825933 C24.511544,26.8913276 23.2909707,26.1228701 22.4244246,24.8881681 C22.3601839,24.7969872 22.3714377,24.6526958 22.3320493,24.4534139 C23.4311748,24.671496 24.459026,24.875478 25.5267346,25.08698 C25.404818,24.6207355 25.3021266,24.2268717 25.1698939,23.7202067 C25.639742,23.8781283 26.0144013,23.9208987 26.287307,24.1103105 C27.144006,24.7053363 28.0827643,24.6635059 28.9769761,24.3998333 C29.9720036,24.1065505 30.925298,23.6576961 31.8715589,23.2205919 C32.3231194,23.0119098 32.7470143,22.7096969 33.1226114,22.3802237 C33.3429992,22.1865818 33.4996152,21.8726188 33.5877703,21.5830959 C33.8494222,20.7253376 34.0168232,19.836559 34.3066097,18.9896107 C34.723002,17.7708889 35.2153577,16.5784873 35.6739519,15.3743356 C35.7335035,15.217824 35.845573,15.0533224 35.8305679,14.901981 C35.772423,14.3017851 36.106756,13.9577418 36.5292441,13.6174585 C36.7482252,13.4407368 36.979398,13.1733042 37.0291024,12.9129216 C37.1256979,12.4076667 37.4140777,12.0664434 37.7629469,11.7529503 C39.3638064,10.3161464 40.9684172,8.88451245 42.2133739,7.10413514 C42.5556783,6.61439038 42.9453427,6.15754593 43.2820203,5.66404113 C43.4466078,5.42245878 43.5788405,5.14280606 43.6576174,4.86127333 C43.9094222,3.95651453 44.6277926,3.42023931 45.2303423,2.7913732 C45.2927073,2.72698257 45.4193131,2.71570246 45.4647974,2.64567178 C45.8872855,2.00458555 46.6037803,1.91669469 47.2400915,1.66994229 C48.3204607,1.25163822 49.4252131,0.879394604 50.4633804,0.372259672 C51.6881739,-0.225116138 52.7596337,-0.0991549128 53.8142128,0.71865304 C54.2849987,1.08337659 54.8050202,1.38370951 55.3001893,1.71694275 C55.3925647,1.77945336 55.4779063,1.85512409 55.5585589,1.93267485 C55.8483454,2.21373758 56.1667354,2.45014988 56.4949726,2.68656218 C56.99952,3.04987571 57.4037206,3.63080136 57.4248216,4.29773785 C57.4477982,5.02013487 57.3713658,5.75146198 57.2757081,6.47009897 C57.1289392,7.56708964 56.8841681,8.65233019 56.769754,9.75120088 C56.7087957,10.3368266 56.905269,10.9473625 56.8625982,11.5372183 C56.7495909,13.1013935 57.1308149,14.6242083 57.1753613,16.1714633 C57.1936488,16.8073795 57.1617629,17.4404757 57.3835575,18.0524216 C57.7872892,19.1616324 58.1638241,20.2811833 58.5928769,21.380524 C58.8512465,22.0418204 58.9178317,22.6565864 58.5942837,23.3221129 C58.383743,23.7549871 58.2683911,24.2372118 58.1413164,24.7058063 C57.8440273,25.807027 57.516728,26.9035477 57.2907133,28.0202785 C57.0234344,29.3391114 56.8536889,30.6776844 56.6342389,32.0068573 C56.4255739,33.2636495 56.2042483,34.5190317 55.9941765,35.776294 C55.9271223,36.1809679 55.8872649,36.5903419 55.8202108,36.9959558 C55.6223307,38.1982275 55.4108522,39.3990892 55.2181301,40.6027709 C55.134664,41.123536 55.3475493,41.4125888 55.8544412,41.53761 C56.5043508,41.6983516 57.1190921,41.644301 57.7802555,41.4614693 C58.5910013,41.2363371 59.4162833,41.0737155 60.3067438,41.1122559 C61.5728014,41.1663064 62.8730895,41.1470362 64.0383314,40.403959 C64.6962124,39.9842449 65.0680582,39.374649 65.4145829,38.7443728 C66.0157258,37.6511422 66.5348094,36.5132611 67.1209472,35.4111004 C67.3296123,35.0186466 67.59736,34.643113 67.9007449,34.3183398 C68.6031724,33.5653925 69.0781785,32.694004 69.4551823,31.7417747 C69.9376909,30.5258729 70.4872537,29.3367613 71.0091508,28.1373097 C71.4635248,27.0920195 71.8724145,26.0241691 72.3877469,25.0103693 C73.1253426,23.5613452 73.9468733,22.1555615 74.7224509,20.7253376 C75.4295675,19.4210749 76.3739527,18.3720247 77.6156269,17.5199064 C79.0659663,16.5239667 80.3362441,15.3061849 81.34487,13.8233205 C82.1007532,12.7108197 82.9593279,11.6674095 83.794457,10.6108392 C84.1461396,10.1652749 84.6844486,10.0092334 85.2063457,9.8452018 C86.2712408,9.51055854 87.3323846,9.1669852 88.3949352,8.82623189 C88.4652717,8.80320166 88.537015,8.77735141 88.6007868,8.73975105 C89.7927566,8.0361542 91.0100475,7.37156774 92.1635667,6.60922033 C92.7829971,6.19937634 93.4704195,6.01983459 94.1428367,5.81350259 C94.6028377,5.67250122 95.1383331,5.78859235 95.6391293,5.76885215 C96.8085914,5.7218517 97.9780535,5.61187063 99.1465777,5.62221073 C100.125662,5.63114081 101.123972,5.69271141 101.918306,6.42262851 C102.079142,6.57020995 102.292496,6.67267094 102.496941,6.75633176 C103.175923,7.03410446 103.684691,7.50175901 104.113744,8.08832471 C104.409626,8.49393865 104.768811,8.85255214 105.078292,9.249236 C105.56127,9.86729201 106.04284,10.487698 106.495339,11.1287843 C107.72529,12.8715612 108.820665,14.7097491 110.209577,16.340195 C110.572982,16.7674291 110.896061,17.2313236 111.208824,17.6980382 C111.540813,18.193423 111.951109,18.5407564 112.509581,18.7950288 C114.58404,19.738798 116.240231,21.1976922 117.459867,23.126121 C118.38362,24.5854851 119.358484,26.0006689 120.499343,27.3025816 C121.300241,28.2162705 122.015329,29.2065701 122.83264,30.1042788 C123.932703,31.3117206 125.145305,32.3917911 126.629875,33.1311082 C127.429836,33.5292021 128.178216,34.0363371 128.989431,34.4081107 C130.075427,34.9053755 131.190496,35.3330797 132.36746,35.5962822 C133.127564,35.7659539 133.846872,36.0559467 134.508505,36.5268913 C135.070728,36.9273352 135.707977,37.2906487 136.48121,37.1468273 C136.620476,37.1209771 136.805227,37.215918 136.936991,37.3038088 C137.322904,37.5618413 137.738827,37.6657123 138.200235,37.7014327 C138.7015,37.7399731 139.197138,37.8602942 139.694652,37.9444251 C140.843482,38.139477 141.993718,38.3227787 143.138797,38.5333408 C144.258086,38.7387328 145.369872,38.9850152 146.490099,39.1866471 C146.98433,39.276418 147.491222,39.2985082 147.992018,39.3558488 C148.88201,39.4578398 149.774346,39.5438506 150.659648,39.6759219 C150.985541,39.7248024 151.312371,39.8540536 151.604502,40.0105652 C151.731108,40.0782458 151.873657,40.3489684 151.830517,40.4547195 C151.749865,40.6535314 151.565583,40.8424732 151.376612,40.9566844 C151.181076,41.0741855 150.928803,41.0972157 150.71498,41.2621873 C151.560425,41.3496082 152.415248,41.3857985 153.248502,41.53996 C154.088789,41.6960015 154.913133,41.948394 155.731381,42.2021965 C156.064776,42.3055975 156.095256,42.7333016 155.781086,42.9048533 C154.671175,43.5116292 153.701,44.415448 152.412435,44.6466902 C150.909577,44.9164729 149.433917,45.4221978 147.87057,45.244066 C147.706921,45.2257359 147.538113,45.2544061 147.317256,45.3507571 C147.500131,45.4861184 147.679255,45.6261798 147.866819,45.754021 C147.942314,45.8052515 148.074077,45.8057215 148.114873,45.8705821 C148.239603,46.0675141 148.424353,46.2921762 148.407941,46.4919282 C148.396688,46.6376296 148.123782,46.8350315 147.936218,46.880622 C147.448082,46.9995331 146.944942,47.0681538 146.444145,47.1184443 C145.701392,47.192705 144.954887,47.2307754 144.210726,47.291876 C144.046139,47.3050361 143.883896,47.3510965 143.682733,47.3891669 C143.785424,47.8300312 144.016128,48.1477543 144.278718,48.4654774 C144.420798,48.637029 144.559595,48.8964716 144.537088,49.0976335 C144.505202,49.3777562 144.177433,49.3298158 143.955639,49.4125366 C142.843853,49.8266106 141.681424,49.7932403 140.530719,49.8609209 C140.221238,49.8792511 139.906599,49.8378907 139.596649,49.8012304 C139.319523,49.7688001 139.240747,49.5765682 139.249187,49.3152456 C139.256221,49.1046836 139.230899,48.8931815 139.219177,48.6671093 C139.113672,48.6953096 139.062561,48.6938996 139.050838,48.7145798 C138.726352,49.3091356 138.560358,49.3801063 137.886065,49.2212447 C137.67318,49.1718942 137.457481,49.1352339 137.220681,49.0882334 C137.211772,49.4195867 137.222557,49.6813792 137.193953,49.9384717 C137.150345,50.3351556 136.929488,50.6021182 136.528101,50.6702688 C135.485245,50.8465205 134.448015,50.8455805 133.426729,50.5231574 C132.695698,50.2919151 131.964198,50.0625529 131.23176,49.8364807 C131.148294,49.8106305 131.056387,49.8115705 130.872106,49.7876002 C131.161423,50.1292936 131.399161,50.3995462 131.625176,50.6801389 C131.890579,51.0091421 131.853535,51.2502545 131.488254,51.4584665 C131.329762,51.5491774 131.140791,51.6328382 130.963543,51.6370682 C130.311758,51.6521084 129.65247,51.6817187 129.008188,51.6036979 C128.713712,51.5679775 128.44784,51.2944349 128.081621,51.0763528 C127.472976,51.407706 126.92013,50.8728408 126.34806,50.5969481 C125.836479,50.3501957 125.413991,49.9201415 124.941329,49.5869083 C124.767832,49.4647071 124.563856,49.3871563 124.373479,49.2889254 C124.342531,49.3274658 124.312521,49.3655361 124.281573,49.4040765 C124.427873,49.557768 124.568546,49.7170995 124.720472,49.864211 C125.407895,50.5297375 126.10282,51.1792838 126.419334,52.133393 C126.615808,52.7255988 126.529528,52.8830503 125.902595,52.8557901 C125.228302,52.8266498 124.201858,52.3552352 123.731072,51.8589104 C123.324996,51.4302662 122.408276,50.8432305 121.877939,50.7083392 C121.935146,50.9908119 122.014392,51.2338043 122.02377,51.4796167 C122.030335,51.6521084 121.991415,51.8899307 121.877939,51.9829916 C121.78697,52.0577223 121.542668,51.9891016 121.385583,51.9317611 C120.577182,51.6347182 119.955876,51.0815228 119.342541,50.488377 C118.418788,49.5953684 117.435952,48.7644003 116.434829,47.8681016 C116.397785,47.9658625 116.369181,48.0405932 116.341047,48.115794 C116.217723,48.4452672 116.056887,48.5387981 115.753971,48.3625464 C115.450586,48.1862947 115.167833,47.9602225 114.914622,47.7162901 C114.095436,46.9285624 113.293599,46.1220346 112.479571,45.3178568 C112.020039,45.5777693 112.020039,45.5777693 111.664136,45.1613452 C111.530497,45.0048337 111.392637,44.8516122 111.264156,44.6908707 C111.066276,44.4445883 110.887152,44.210056 110.546254,44.1028949 C110.295856,44.0239342 110.098914,43.7753018 109.881808,43.6051601 C109.693307,43.6667307 109.470105,43.8204222 109.342093,43.7626116 C109.161562,43.6808308 109.034019,43.4538186 108.914447,43.2691068 C108.752204,43.0195344 108.645292,42.7309516 108.466637,42.4954793 C108.269695,42.2355668 108.144027,42.2656471 107.963497,42.5509399 C107.714505,42.9448037 107.524597,42.980524 107.20902,42.6284906 C106.936114,42.3239276 106.716196,41.9723642 106.465329,41.6471211 C106.323249,41.4633493 106.165695,41.2917976 105.985164,41.0784155 C105.871688,41.2151869 105.81495,41.2828675 105.758681,41.3510182 C105.701474,41.4201089 105.644267,41.4896695 105.568772,41.5817904 C105.490933,41.53855 105.422941,41.5136398 105.371361,41.4699293 C105.231157,41.3514882 105.11346,41.1677164 104.955438,41.124476 C104.870565,41.1014458 104.718169,41.3091878 104.60141,41.4182288 C104.428851,41.5789704 104.288647,41.5493601 104.116557,41.3947286 C102.381589,39.8267934 100.644746,38.2616781 98.8980553,36.706903 C98.466189,36.3214993 97.9630483,36.1598177 97.3553407,36.1631077 C96.7692029,36.1663978 96.1793138,35.9990761 95.5964584,35.880165 C95.3432469,35.8279945 95.0703412,35.7560838 94.8668341,35.6089723 C94.5573534,35.3857202 94.2844476,35.1041874 94.0246714,34.8207747 C93.6462608,34.4085807 93.2805108,33.9832265 92.9344551,33.5437723 C92.5190006,33.0164271 92.1176135,32.4773319 91.733576,31.9269565 C91.4194061,31.4748121 91.111801,31.0386479 90.5298835,30.9023466 C89.299463,30.6142338 88.4666785,29.8391962 87.8711625,28.7469056 C87.3863093,27.857657 86.8381532,27.0036587 86.3429841,26.1200501 C86.0911793,25.6707257 85.7868565,25.5090441 85.2490165,25.5743748 C84.290564,25.6914059 83.3180442,25.6909359 82.3539648,25.7713067 C82.1082558,25.7915169 81.8414459,25.8878678 81.6379389,26.0274592 C81.1136972,26.3874827 80.6330642,26.8123668 80.1088226,27.1719203 C79.3693512,27.6790552 78.6294109,28.1927702 77.8482064,28.6294045 C76.4283463,29.4227722 75.2115242,30.4718224 74.0097073,31.5457828 C73.4793699,32.0195474 72.9898276,32.5412525 72.4519876,33.005617 C71.639835,33.7068638 71.2806498,34.6896434 70.8117396,35.5981622 C69.9358153,37.2948787 69.0899012,39.0071054 68.255241,40.7240321 C67.9363821,41.3792185 67.6963001,42.0720052 67.3976042,42.7370617 C66.8808652,43.8852828 65.17919,45.2252659 63.6285039,44.9808635 C62.8266674,44.8539623 61.9643415,45.0927246 61.1315569,45.1867255 C60.7747162,45.2266759 60.5290073,45.442408 60.3522281,45.7643611 C60.0389961,46.3354167 59.6193214,46.8613518 59.3923689,47.4624876 C59.1354061,48.1449343 58.9942641,48.8584012 59.1883929,49.6381388 C59.3703301,50.3675859 59.9109836,50.5283274 60.4525749,50.7120992 C61.496838,51.0655427 62.562202,51.3531855 63.6116231,51.6929988 C64.2676285,51.9054408 64.9034708,52.1794535 65.5590072,52.3961256 C66.3580303,52.6602682 67.169245,52.8863404 67.9715504,53.1406128 C68.9862721,53.463036 69.9939602,53.8084893 71.0110264,54.1233924 C72.0637299,54.4495756 73.1248737,54.7499085 74.1813285,55.0643415 C74.9686287,55.2984038 75.7526466,55.5446862 76.5427604,55.7712284 C77.2789494,55.9827305 78.017483,56.1895325 78.7616435,56.3737743 C80.2485579,56.7413179 81.741568,57.062331 83.1539256,57.7067072 C84.0495441,58.1151412 85.0286287,58.3416834 85.9748895,58.6359063 C86.3200075,58.7430673 86.5136674,58.6297962 86.6388664,58.2401624 C86.9717927,57.2047424 87.2995609,56.1679123 87.6043526,55.1240321 C87.7647199,54.5722468 88.0033952,54.0402016 87.9790118,53.4338957 C87.9710404,53.2247437 88.1843945,53.0071315 88.2931817,52.7918694 C88.3410105,52.6969285 88.4226009,52.5954075 88.416974,52.5009366 C88.3972797,52.1526632 87.5935676,51.4932468 87.2409471,51.4899568 C86.9821087,51.4876068 86.7242081,51.4406063 86.4649007,51.4203961 C85.889079,51.3752757 85.3109126,51.3522454 84.7374354,51.2869148 C84.3505845,51.2432044 83.9623268,51.1694137 83.5895432,51.0584926 C83.3025702,50.9734218 83.1403272,50.5579377 83.2341093,50.1969742 C83.3485234,49.7551699 83.5909499,49.3805763 84.0800233,49.3293458 C85.0619213,49.2268848 86.0480395,49.1056236 87.032751,49.1056236 C88.4694919,49.1060936 89.9071707,49.2033846 91.3439116,49.2658952 C92.3506619,49.3100756 93.3611634,49.3237057 94.3618178,49.4280467 C95.4192104,49.5384978 96.4695693,49.7241496 97.5166458,49.9088614 C98.0502656,50.0028623 98.299257,50.4535967 98.2251691,50.9922219 C98.1510813,51.5355472 97.9227221,51.9590213 97.4064519,52.1785135 C96.6857369,52.4854265 95.9725244,52.8214797 95.2274261,53.053192 C94.8996578,53.155183 94.4992085,53.051782 94.1367409,53.0024315 C93.8990034,52.9700012 93.6697063,52.8694202 93.4385336,52.7951595 C93.1707858,52.7091486 92.9588384,52.7223088 92.7332926,52.955901 C92.5668295,53.1279227 92.2859522,53.2698641 92.052435,53.2759742 C91.72326,53.2844342 91.566644,53.4733761 91.4597324,53.6928682 C91.2899869,54.0430216 91.174635,54.4209053 91.0531873,54.7926789 C90.7807504,55.628347 90.5190985,56.4673052 90.2513508,57.3043833 C90.0122066,58.0526306 89.76978,58.7999379 89.5301669,59.5477151 C89.4284133,59.8654382 89.4818691,60.1239408 89.7725934,60.3359128 C90.6766524,60.9986193 91.5816491,61.6622657 92.4655449,62.3517624 C92.9954134,62.7648964 93.5276265,63.1897806 93.9791871,63.6828154 C94.2525617,63.9807983 94.4420015,63.9789182 94.7327258,63.7937364 C95.2372732,63.4722533 95.7300978,63.1244499 96.2604353,62.8527873 C97.4500605,62.2460114 98.6903281,61.8610776 100.050637,61.7670767 C101.928622,61.6378255 103.745649,61.9043181 105.556112,62.3151021 C106.117397,62.4424733 106.645859,62.7329361 107.209958,62.827407 C108.133242,62.9825086 108.890532,63.4558032 109.673612,63.9074775 C110.618935,64.4522128 111.446562,65.1393595 112.216981,65.903117 C113.562754,67.2379299 114.464937,68.8467556 115.209566,70.5801324 C116.11175,72.6815229 116.477969,74.8745642 116.44702,77.1310561 C116.432953,78.1697662 116.275868,79.2239865 116.0386,80.2373164 C115.707549,81.6543801 115.086243,82.9703929 114.39929,84.2582055 C113.776108,85.4261668 112.985525,86.4531268 112.060834,87.3813858 C110.314613,89.1335629 108.213895,90.2531138 105.817295,90.8260493 C103.94306,91.2739637 102.057572,91.2373033 100.147232,91.0662217 C98.7254964,90.9393204 97.4866355,90.3457047 96.199477,89.8540799 C94.7833681,89.3135746 93.5069945,88.5065768 92.4425683,87.4532965 C91.2899869,86.3130654 90.1575687,85.1263039 89.4785867,83.597379 C89.2131835,83 88.8577496,82.4430478 88.5496756,81.8644722 C88.4211942,81.6228898 88.2669227,81.5147888 87.9649445,81.5650793 C86.5075715,81.8076016 85.0441027,82.0139336 83.5857919,82.255046 C82.885709,82.3706671 82.8088077,82.561959 82.9199394,83.2646158 C83.084058,84.2990959 83.2036301,85.340626 83.3246089,86.3812161 C83.3611839,86.6956492 83.408075,86.984702 83.7433458,87.1054931 C84.4617162,87.3644657 84.969546,87.8734806 85.4164174,88.4694464 C85.6968258,88.8445101 86.029752,89.1805633 86.296093,89.5640871 C86.426919,89.7516189 86.5169497,90.0054213 86.525859,90.2329036 C86.54696,90.8086592 86.3265722,90.9741008 85.7657556,90.8199393 C85.0464473,90.6215973 84.3379239,90.3865951 83.6204913,90.179323 C83.0502965,90.0138814 82.4707234,89.8766401 81.9019353,89.7041484 C81.7504773,89.658088 81.5962058,89.5518669 81.490701,89.4315458 C81.099161,88.9817514 80.7296598,88.5126868 80.347029,88.0553724 C80.1683742,87.8424603 80.164154,87.6135681 80.2551226,87.3691657 C80.3132675,87.2121842 80.3882931,87.0603727 80.4319018,86.8996311 C80.5120854,86.6016482 80.6335332,86.3948462 81.0025655,86.4178765 C81.3495591,86.4390267 81.454595,86.2341047 81.381445,85.9022814 C81.1784068,84.9876526 80.9917806,84.0687936 80.7878046,83.1541647 C80.7291908,82.8909622 80.5491293,82.7621809 80.2734101,82.7118904 C78.8258842,82.4505679 77.6733029,81.0034238 77.6709584,79.6549807 C77.6700205,79.2488967 77.4871455,78.969714 77.2325273,78.6656211 C76.0147674,77.2095469 74.5527054,76.0053952 73.2134978,74.6748123 C72.0309062,73.5002708 70.9059905,72.2674488 69.7496579,71.0661172 C68.8929589,70.1759285 68.06205,69.2570696 67.1537709,68.4228115 C66.3974187,67.7276747 65.5360306,67.1486291 64.7388833,66.4972027 C63.4770458,65.4669527 62.2344338,64.4141425 60.9740031,63.3824824 C60.5698025,63.0511292 60.1623195,62.7089659 59.7098211,62.4542234 C58.3931212,61.7134962 57.2874309,60.6987563 56.1198444,59.7634472 C55.9158685,59.6003557 55.693605,59.4602943 55.4802509,59.3089528 C55.2298528,59.1308211 55.0244701,59.2154219 54.9639807,59.4800345 C54.9034913,59.742297 54.8617583,60.0534401 54.946631,60.2959624 C55.1993736,61.0178894 55.4493028,61.7562666 55.8267755,62.415213 C56.4138511,63.439353 56.3524239,64.4371727 55.8577236,65.4232423 C55.3470804,66.4403322 54.7548468,67.4160617 54.1987192,68.4105913 C53.6055478,69.4709217 53.0156587,70.534542 52.4168604,71.5920523 C52.2790008,71.8364547 52.3033841,72.0155264 52.4801633,72.2481787 C54.1401055,74.4313499 55.4188236,76.8203831 56.3210069,79.4162184 C57.1280014,81.739451 57.6719373,84.111564 57.7460251,86.577678 C57.7816623,87.7667896 57.8496542,88.9610712 57.7797866,90.1459527 C57.7103879,91.3223742 57.4810908,92.4889255 57.3305706,93.6611169 C57.2616408,94.2006821 57.2738325,94.7581076 57.1420687,95.2807527 C56.8119559,96.5878354 56.4715271,97.8972681 56.0326271,99.1705105 C55.793014,99.8689373 55.3789663,100.516604 54.9850817,101.15064 C54.1082196,102.563003 53.2473004,103.990877 52.2813453,105.3412 C51.3407114,106.657213 50.2218916,107.827055 49.0247638,108.928745 C48.0855366,109.793084 47.0797242,110.552141 46.0448393,111.288168 C44.3600449,112.48574 42.5491136,113.440319 40.6279884,114.189037 C38.9755488,114.832473 37.2748114,115.295897 35.5257763,115.6108 C33.5924594,115.959074 31.6469509,116.050725 29.6972222,115.975524 C28.1751396,115.916773 26.6554015,115.743342 25.1417593,115.56333 C24.0482607,115.433139 22.9472595,115.284147 21.8847089,115.007314 C20.6650734,114.689121 19.4777927,114.237917 18.2872297,113.813973 C17.3058006,113.464759 16.3131176,113.128236 15.3724837,112.685022 C13.5681172,111.834784 11.8261157,110.856234 10.2791808,109.582522 C9.28790463,108.766594 8.33648578,107.897555 7.40991918,107.007837 C5.90471735,105.563043 4.71040301,103.869146 3.64175661,102.085009 C2.26925638,99.7937365 1.31549298,97.3295026 0.697938217,94.7364874 C0.360791766,93.3213036 0.135245948,91.8854396 0.0606892218,90.4270154 C-0.00777167099,89.0846824 -0.0574761548,87.7475194 0.137121588,86.4098864 C0.263258439,85.544138 0.303584718,84.6642894 0.456918362,83.804181 C0.812352312,81.8123017 1.42005996,79.892803 2.21439388,78.0325249 C3.02091947,76.1454566 3.85370403,74.2654383 5.01191229,72.5659018 C6.23060996,70.7761243 7.60170346,69.1090181 9.21991264,67.6491839 C10.288559,66.6856746 11.411599,65.805826 12.6063823,65.0119883 C13.945121,64.1232096 15.3677946,63.3932925 16.8453307,62.7658364 C18.9666806,61.8653077 21.1766545,61.2862621 23.451338,60.972299 C25.0376613,60.7528069 26.637114,60.7189665 28.2421937,60.7481068 C30.06391,60.7814771 31.8560848,60.9539688 33.6266898,61.3953031 C34.2597186,61.5527546 34.9241644,61.5786049 35.5698538,61.690936 C37.094281,61.9564886 38.5225815,62.5219041 39.9316567,63.1385501 C41.1920874,63.6908054 42.4520492,64.2435308 43.6998193,64.8239865 C44.0078933,64.9673379 44.2662628,65.2178503 44.5973135,65.4552026" id="Fill-1" fill="#000000"></path>
    </g>
</svg>