<?xml version="1.0" standalone="no"?>
<!DOCTYPE svg PUBLIC "-//W3C//DTD SVG 20010904//EN"
 "http://www.w3.org/TR/2001/REC-SVG-20010904/DTD/svg10.dtd">
<svg version="1.0" xmlns="http://www.w3.org/2000/svg"
 width="1000.000000pt" height="1000.000000pt" viewBox="0 0 1000.000000 1000.000000"
 preserveAspectRatio="xMidYMid meet">
<metadata>
Created by potrace 1.11, written by Peter Selinger 2001-2013
</metadata>
<g transform="translate(0.000000,1000.000000) scale(0.100000,-0.100000)"
fill="#000000" stroke="none">
<path d="M4280 9520 c-25 -4 -63 -10 -85 -14 -85 -13 -112 -18 -170 -32 -293
-72 -586 -225 -871 -452 -90 -71 -227 -200 -280 -264 -141 -168 -241 -333
-317 -523 -39 -97 -81 -237 -91 -299 -4 -21 -8 -41 -10 -45 -2 -3 -7 -26 -10
-51 -3 -25 -8 -56 -11 -69 -24 -125 -24 -511 0 -643 2 -9 7 -38 11 -65 9 -67
10 -71 29 -149 30 -122 79 -266 138 -404 6 -14 11 -27 12 -30 0 -3 26 -55 57
-117 107 -214 228 -406 444 -705 64 -88 114 -161 112 -162 -2 -2 -50 -38 -108
-82 -352 -264 -722 -620 -931 -894 -284 -373 -464 -778 -515 -1155 -3 -27 -8
-59 -10 -70 -22 -118 -23 -598 0 -765 2 -14 6 -50 10 -80 27 -203 85 -413 163
-585 56 -123 155 -290 230 -385 109 -139 157 -195 263 -300 69 -69 154 -147
190 -173 36 -27 72 -54 80 -60 21 -17 110 -77 114 -77 2 0 35 -19 72 -42 170
-103 516 -239 694 -273 14 -3 35 -7 48 -10 52 -12 68 -15 106 -21 22 -3 43 -7
46 -9 3 -1 30 -6 61 -9 31 -4 65 -8 76 -10 144 -28 758 -28 933 -1 14 2 46 6
72 9 72 9 116 16 203 32 44 9 94 18 110 21 17 2 57 11 90 19 33 8 68 17 77 19
136 31 390 114 563 183 145 58 231 97 403 185 84 42 155 77 157 77 1 0 58 -78
126 -172 67 -95 126 -175 129 -178 4 -3 12 -15 19 -27 l12 -23 899 0 c495 0
900 2 900 6 0 5 -171 246 -181 254 -3 3 -18 23 -32 45 -27 42 -249 353 -264
370 -5 6 -31 42 -59 81 -27 39 -150 211 -274 383 -124 172 -237 329 -251 349
-43 62 -383 536 -392 547 -4 6 -38 53 -75 105 -37 52 -115 160 -172 240 -243
339 -666 929 -699 976 -20 28 -62 86 -94 130 -32 43 -119 165 -193 269 -74
105 -160 224 -190 265 -174 237 -395 552 -392 560 2 5 113 87 248 184 135 96
334 238 443 316 l197 141 -22 32 c-29 41 -396 552 -552 770 -67 92 -146 204
-176 247 -30 44 -58 80 -61 80 -3 0 -131 -90 -285 -200 -153 -111 -315 -226
-359 -257 -44 -31 -84 -61 -90 -65 -40 -35 -161 -115 -167 -112 -4 3 -33 42
-65 87 -31 45 -59 84 -63 87 -13 12 -151 223 -193 295 -93 162 -171 352 -203
500 -22 99 -26 274 -8 359 17 80 55 171 98 236 105 157 304 288 496 324 66 13
226 14 285 1 226 -46 467 -204 640 -420 22 -28 45 -55 51 -62 10 -11 108 54
375 249 13 10 103 74 199 143 333 239 455 327 475 342 6 4 29 21 52 37 l43 29
-59 66 c-487 549 -989 814 -1681 887 -84 9 -539 12 -590 4z m-187 -5207 c33
-48 178 -251 242 -338 20 -27 76 -106 125 -175 49 -69 93 -129 97 -135 5 -5
29 -39 54 -75 25 -36 123 -173 218 -305 95 -132 179 -249 187 -260 7 -11 37
-53 66 -93 29 -39 73 -100 97 -135 25 -34 136 -190 248 -345 l203 -284 -78
-38 c-224 -112 -406 -181 -606 -229 -86 -21 -102 -24 -261 -45 -127 -18 -403
-13 -505 7 -120 24 -125 26 -217 58 -404 142 -674 459 -757 889 -15 75 -15
287 -2 375 35 215 144 448 319 680 66 86 281 306 362 371 28 21 52 42 55 45
14 15 104 79 112 79 4 0 23 -21 41 -47z"/>
</g>
</svg>
