<?xml version="1.0" standalone="no"?>
<!DOCTYPE svg PUBLIC "-//W3C//DTD SVG 20010904//EN"
 "http://www.w3.org/TR/2001/REC-SVG-20010904/DTD/svg10.dtd">
<svg version="1.0" xmlns="http://www.w3.org/2000/svg"
 width="98.000000pt" height="98.000000pt" viewBox="0 0 98.000000 98.000000"
 preserveAspectRatio="xMidYMid meet">
<metadata>
Created by potrace 1.11, written by Peter Selinger 2001-2013
</metadata>
<g transform="translate(0.000000,98.000000) scale(0.100000,-0.100000)"
fill="#000000" stroke="none">
<path d="M265 818 c-20 -23 -43 -57 -50 -75 -11 -25 -20 -33 -39 -33 -35 0
-32 -14 8 -39 46 -29 63 -26 102 15 30 31 35 33 41 17 4 -10 7 -42 6 -70 0
-39 3 -53 13 -53 11 0 10 -7 -3 -35 -9 -19 -20 -35 -25 -35 -4 0 -14 -13 -23
-29 -15 -30 -15 -30 -50 -15 -92 38 -192 -3 -231 -95 -33 -79 1 -171 77 -209
100 -50 208 -20 255 70 18 36 18 112 -1 149 -12 23 -13 34 -4 50 6 12 9 30 6
40 -5 18 -3 18 26 -2 48 -32 138 -132 133 -146 -3 -7 4 -17 14 -23 21 -11 29
3 10 15 -14 9 -12 25 4 31 7 3 27 -9 44 -25 41 -41 83 -42 123 -2 31 31 37 67
18 104 -20 38 -69 59 -105 46 -14 -5 -29 -3 -39 5 -14 10 -15 16 -6 34 6 12
18 22 26 22 8 0 15 4 15 9 0 11 -80 19 -86 9 -3 -4 2 -8 10 -8 15 0 22 -30 11
-42 -5 -5 -67 12 -135 37 -39 14 -47 38 -13 43 13 2 26 15 34 34 14 33 54 75
82 84 11 3 29 -6 51 -26 18 -18 43 -37 54 -43 12 -7 49 -29 82 -50 33 -21 68
-38 78 -39 45 -1 116 13 124 24 4 7 8 9 8 3 0 -5 5 -4 12 3 7 7 20 12 30 12
10 0 18 4 18 8 0 11 -46 32 -69 32 -10 0 -38 7 -62 15 -41 15 -65 36 -184 166
-54 58 -155 -3 -220 -133 -29 -57 -40 -68 -68 -68 -17 0 -18 5 -11 53 4 28 7
59 7 67 -1 8 -2 38 -3 65 -4 87 -37 99 -95 33z m259 -356 c-1 -7 -2 -21 -2
-31 -3 -29 -51 -22 -82 10 -14 15 -37 35 -52 44 -16 10 -28 23 -28 30 0 10 22
6 83 -14 45 -15 82 -33 81 -39z m38 -40 c-9 -14 -16 -28 -14 -31 2 -3 -1 -7
-7 -9 -14 -5 -14 2 1 49 9 30 14 36 24 28 11 -9 10 -16 -4 -37z m109 17 c68
-36 18 -150 -51 -116 -30 15 -37 37 -13 37 10 0 24 4 32 9 12 7 10 14 -8 37
-17 21 -19 29 -9 36 17 10 26 10 49 -3z m-426 -16 c14 -8 13 -12 -8 -35 -13
-13 -32 -30 -42 -36 -11 -6 -17 -14 -13 -18 4 -4 20 1 35 10 23 14 22 11 -7
-13 -22 -20 -29 -31 -18 -31 15 0 50 24 93 63 19 17 20 17 28 -5 5 -13 7 -43
4 -67 -16 -145 -235 -146 -248 -1 -10 103 92 180 176 133z m360 -41 c-22 -5
-27 1 -19 23 7 17 8 17 21 -1 12 -17 12 -19 -2 -22z"/>
</g>
</svg>
